<?xml version="1.0" encoding="utf-8"?>
<!-- Generator: Adobe Illustrator 16.0.0, SVG Export Plug-In . SVG Version: 6.00 Build 0)  -->
<!DOCTYPE svg PUBLIC "-//W3C//DTD SVG 1.1//EN" "http://www.w3.org/Graphics/SVG/1.1/DTD/svg11.dtd">
<svg version="1.1" id="Layer_1" xmlns="http://www.w3.org/2000/svg" xmlns:xlink="http://www.w3.org/1999/xlink" x="0px" y="0px"
	 width="612px" height="175px" viewBox="0 319.5 612 175" enable-background="new 0 319.5 612 175" xml:space="preserve">
<title>simple-tech</title>
<g>
	<g>
		<path fill="#1D1D1B" d="M291.012,421.232c0-0.884-0.042-1.755-0.116-2.617l6.631-3.696c-0.378-2.202-0.956-4.363-1.726-6.462
			l-7.579,0.126c-0.743-1.582-1.624-3.095-2.633-4.522l3.895-6.493c-1.433-1.715-3.017-3.299-4.733-4.729l-6.476,3.895
			c-1.432-1.007-2.95-1.885-4.537-2.625l0.128-7.577c-2.097-0.77-4.259-1.348-6.46-1.726l-3.681,6.624
			c-0.863-0.072-1.737-0.115-2.618-0.115c-0.88,0-1.754,0.043-2.62,0.115l-2.133-3.859c-0.932-1.696-2.896-2.543-4.77-2.057
			l-0.064,0.015c-1.867,0.515-3.147,2.231-3.108,4.169l0.073,4.411c-1.587,0.74-3.105,1.618-4.538,2.625l-3.779-2.267
			c-1.658-1.002-3.783-0.751-5.162,0.608l-0.049,0.048c-1.359,1.38-1.61,3.506-0.609,5.164l2.264,3.777
			c-1.005,1.434-1.883,2.952-2.624,4.537l-7.576-0.124c-0.771,2.096-1.348,4.258-1.725,6.46l6.625,3.682
			c-0.078,0.862-0.116,1.735-0.116,2.617c0,0.883,0.04,1.755,0.116,2.62l-6.625,3.679c0.371,2.2,0.942,4.362,1.707,6.457
			l7.576-0.124c0.741,1.585,1.619,3.104,2.624,4.537l-3.891,6.494c1.434,1.716,3.02,3.3,4.738,4.729l6.494-3.894
			c1.432,1.006,2.95,1.884,4.537,2.624l-0.073,4.464c-0.033,1.924,1.25,3.622,3.108,4.116l0.064,0.017
			c1.857,0.495,3.813-0.336,4.748-2.015l2.148-3.903c0.866,0.075,1.737,0.115,2.621,0.115c0.884,0,1.755-0.04,2.618-0.115
			l3.69,6.624c2.201-0.376,4.364-0.953,6.46-1.726l-0.128-7.577c1.589-0.739,3.111-1.618,4.546-2.624l6.485,3.894
			c1.716-1.431,3.3-3.015,4.732-4.729l-3.904-6.494c1.007-1.433,1.885-2.95,2.624-4.537l1.688,0.026
			c3.745,0.068,6.979-2.604,7.618-6.295v-0.067l-6.625-3.679C290.969,422.987,291.012,422.115,291.012,421.232z M261.099,442.604
			c-11.802,0-21.371-9.568-21.371-21.371c-0.001-11.801,9.564-21.368,21.365-21.371c0.001,0,0.004,0,0.006,0
			c11.803,0,21.371,9.568,21.371,21.371S272.902,442.604,261.099,442.604z"/>
	</g>
	<g>
		<path d="M267.292,457.881l-3.696-6.635c-1.679,0.141-3.327,0.141-5.014,0l-2.085,3.79c-0.777,1.395-2.249,2.26-3.843,2.26
			c-0.381,0-0.762-0.05-1.132-0.148l-0.063-0.017c-1.953-0.52-3.292-2.293-3.258-4.313l0.071-4.335
			c-1.512-0.713-2.972-1.558-4.343-2.512l-6.504,3.899l-0.109-0.091c-1.72-1.43-3.323-3.028-4.764-4.754l-0.091-0.108l3.897-6.506
			c-0.953-1.371-1.797-2.831-2.512-4.343l-7.589,0.124l-0.049-0.134c-0.767-2.103-1.344-4.287-1.716-6.492l-0.023-0.14l6.636-3.685
			c-0.07-0.834-0.106-1.677-0.106-2.508c0-0.842,0.036-1.684,0.106-2.506l-6.636-3.687l0.024-0.141
			c0.377-2.206,0.961-4.391,1.734-6.495l0.049-0.133l7.588,0.124c0.713-1.51,1.558-2.97,2.512-4.343l-2.197-3.667
			c-1.048-1.737-0.786-3.961,0.638-5.407l0.051-0.051c0.834-0.823,1.94-1.276,3.114-1.276c0.807,0,1.6,0.221,2.292,0.639l3.667,2.2
			c1.371-0.955,2.831-1.799,4.344-2.513l-0.071-4.282c-0.041-2.03,1.297-3.826,3.255-4.365l0.073-0.017
			c0.358-0.093,0.733-0.141,1.108-0.141c1.616,0,3.103,0.88,3.881,2.296l2.07,3.746c1.773-0.141,3.251-0.141,5.014,0l3.688-6.635
			l0.14,0.024c2.204,0.378,4.39,0.962,6.496,1.735l0.133,0.049l-0.128,7.59c1.513,0.714,2.973,1.559,4.343,2.513l6.486-3.901
			l0.109,0.091c1.718,1.432,3.319,3.032,4.758,4.755l0.091,0.108l-3.901,6.504c0.959,1.37,1.806,2.825,2.521,4.329l7.591-0.126
			l0.049,0.133c0.772,2.106,1.356,4.293,1.735,6.497l0.024,0.14l-6.643,3.703c0.071,0.874,0.106,1.694,0.106,2.505
			c0,0.81-0.035,1.631-0.106,2.508l6.615,3.673v0.186c-0.651,3.778-3.879,6.496-7.678,6.496c0,0,0,0,0,0l-1.702-0.025
			c-0.712,1.511-1.557,2.971-2.512,4.343l3.91,6.505l-0.091,0.109c-1.439,1.723-3.04,3.322-4.757,4.754l-0.109,0.091l-0.122-0.072
			l-6.374-3.827c-1.376,0.956-2.84,1.8-4.353,2.512l0.128,7.59l-0.133,0.049c-2.1,0.773-4.285,1.357-6.496,1.735L267.292,457.881z
			 M263.82,450.825l3.684,6.613c2.093-0.365,4.161-0.918,6.153-1.643l-0.128-7.565l0.118-0.055c1.573-0.731,3.092-1.608,4.516-2.606
			l0.106-0.074l6.475,3.887c1.622-1.362,3.137-2.876,4.506-4.503l-3.897-6.483l0.075-0.106c0.998-1.42,1.875-2.936,2.606-4.506
			l0.055-0.118l1.956,0.03c3.577,0,6.621-2.541,7.267-6.053l-6.624-3.678l0.011-0.129c0.077-0.914,0.115-1.766,0.115-2.604
			c0-0.839-0.038-1.689-0.115-2.601l-0.011-0.128l6.621-3.69c-0.367-2.087-0.919-4.156-1.644-6.154l-7.565,0.126l-0.055-0.117
			c-0.734-1.563-1.614-3.075-2.615-4.492l-0.075-0.106l0.067-0.111l3.822-6.371c-1.37-1.627-2.885-3.141-4.507-4.504l-6.465,3.888
			l-0.107-0.074c-1.417-0.997-2.933-1.874-4.506-2.608l-0.118-0.055l0.128-7.564c-1.998-0.724-4.066-1.277-6.152-1.644l-3.675,6.613
			l-0.129-0.011c-1.839-0.154-3.356-0.155-5.205,0l-0.129,0.011l-2.196-3.973c-0.708-1.289-2.061-2.089-3.531-2.089
			c-0.341,0-0.682,0.043-1.013,0.129l-0.07,0.016c-1.772,0.489-2.99,2.122-2.952,3.97l0.075,4.542l-0.118,0.055
			c-1.573,0.734-3.089,1.611-4.507,2.608l-0.106,0.074l-3.891-2.333c-0.63-0.381-1.351-0.582-2.085-0.582
			c-1.067,0-2.074,0.413-2.833,1.162l-0.049,0.048c-1.293,1.313-1.532,3.336-0.578,4.917l2.331,3.89l-0.075,0.106
			c-0.996,1.421-1.873,2.937-2.606,4.507l-0.055,0.117l-7.563-0.124c-0.725,1.995-1.277,4.063-1.643,6.152l6.615,3.676l-0.012,0.129
			c-0.077,0.851-0.115,1.726-0.115,2.6c0,0.862,0.039,1.738,0.115,2.603l0.011,0.129l-0.113,0.063l-6.501,3.61
			c0.36,2.087,0.906,4.154,1.625,6.148l7.563-0.124l0.055,0.117c0.734,1.572,1.611,3.088,2.606,4.507l0.075,0.106l-3.885,6.483
			c1.372,1.629,2.889,3.143,4.513,4.504l6.484-3.888l0.106,0.074c1.418,0.997,2.935,1.874,4.507,2.606l0.118,0.056l-0.075,4.593
			c-0.031,1.837,1.186,3.448,2.959,3.92l0.063,0.017c0.338,0.09,0.684,0.136,1.031,0.136c1.449,0,2.787-0.787,3.493-2.055
			l2.21-4.017l0.129,0.012c1.751,0.152,3.462,0.152,5.204,0L263.82,450.825z M261.099,442.804c-11.894,0-21.571-9.677-21.571-21.571
			c-0.001-11.892,9.672-21.568,21.565-21.571h0.006c11.895,0,21.571,9.677,21.571,21.571S272.994,442.804,261.099,442.804z
			 M261.093,399.861v0.2c-11.672,0.003-21.166,9.5-21.165,21.171c0,11.674,9.497,21.171,21.17,21.171
			c11.674,0,21.171-9.497,21.171-21.171s-9.497-21.171-21.171-21.171L261.093,399.861z"/>
	</g>
</g>
<g>
	<g>
		<path fill="#1D1D1B" d="M401.827,380.754c0-0.816-0.036-1.631-0.105-2.418l6.115-3.393c-0.346-2.031-0.878-4.027-1.59-5.961
			l-6.988,0.115c-0.685-1.463-1.495-2.861-2.422-4.184l3.592-5.994c-1.32-1.582-2.782-3.043-4.366-4.361l-5.978,3.604
			c-1.321-0.93-2.723-1.74-4.187-2.422l0.11-6.992c-1.936-0.709-3.931-1.24-5.961-1.59l-3.396,6.115
			c-0.795-0.068-1.603-0.105-2.414-0.105c-0.811,0-1.631,0.037-2.417,0.105l-3.396-6.115c-2.029,0.349-4.023,0.881-5.957,1.59
			l0.114,6.992c-1.465,0.682-2.865,1.492-4.188,2.422l-5.989-3.592c-1.583,1.32-3.044,2.781-4.366,4.363l3.592,5.992
			c-0.927,1.322-1.735,2.721-2.418,4.184l-6.992-0.113c-0.71,1.934-1.242,3.93-1.59,5.961l6.116,3.391
			c-0.069,0.816-0.106,1.604-0.106,2.418c0,0.816,0.037,1.631,0.106,2.418l-6.116,3.393c0.346,2.031,0.877,4.025,1.586,5.961
			l6.992-0.115c0.683,1.463,1.491,2.863,2.418,4.183l-3.592,5.994c1.322,1.576,2.784,3.033,4.366,4.35l5.989-3.592
			c1.321,0.93,2.723,1.74,4.188,2.422l-0.114,6.992c1.934,0.709,3.927,1.24,5.957,1.59l3.396-6.115
			c0.794,0.068,1.6,0.104,2.418,0.105c0.815,0,1.631-0.037,2.414-0.105l3.396,6.115c2.03-0.35,4.025-0.881,5.96-1.59l-0.028-1.563
			c-0.029-3.123,1.5-6.057,4.077-7.822l0.041-0.029l5.969,3.592c1.584-1.32,3.046-2.779,4.366-4.363l-3.592-5.992
			c0.927-1.322,1.737-2.722,2.422-4.183l6.988,0.113c0.712-1.934,1.244-3.928,1.59-5.959l-6.115-3.393
			C401.791,382.356,401.827,381.569,401.827,380.754z M374.233,400.482c-10.889,0-19.717-8.826-19.717-19.716
			c0-10.889,8.828-19.717,19.717-19.717c10.89,0,19.717,8.828,19.717,19.717C393.95,391.657,385.123,400.482,374.233,400.482z"/>
	</g>
	<g>
		<path d="M368.525,414.582l-0.14-0.023c-2.04-0.352-4.056-0.89-5.992-1.6l-0.133-0.049l0.114-7.005
			c-1.39-0.654-2.732-1.431-3.994-2.31l-5.999,3.598l-0.109-0.091c-1.585-1.318-3.063-2.791-4.392-4.374l-0.092-0.109l3.599-6.005
			c-0.873-1.257-1.648-2.598-2.306-3.99l-7.005,0.115l-0.049-0.133c-0.713-1.945-1.249-3.962-1.596-5.996l-0.023-0.14l6.127-3.398
			c-0.064-0.766-0.097-1.541-0.097-2.306c0-0.749,0.032-1.505,0.097-2.306l-6.127-3.397l0.023-0.14
			c0.35-2.039,0.887-4.057,1.6-5.996l0.049-0.133l7.005,0.113c0.654-1.386,1.43-2.727,2.306-3.99l-3.599-6.003l0.092-0.109
			c1.329-1.59,2.807-3.066,4.392-4.389l0.109-0.091l0.121,0.073l5.878,3.525c1.265-0.88,2.606-1.656,3.994-2.31l-0.114-7.004
			l0.133-0.049c1.94-0.711,3.957-1.249,5.992-1.599l0.14-0.024l3.403,6.126c1.525-0.126,3.043-0.128,4.606,0l3.403-6.126l0.14,0.024
			c2.041,0.352,4.059,0.89,5.995,1.599l0.134,0.049l-0.11,7.005c1.39,0.655,2.731,1.431,3.992,2.31l5.988-3.61l0.109,0.091
			c1.588,1.321,3.065,2.797,4.392,4.387l0.091,0.109l-0.072,0.122l-3.525,5.883c0.878,1.265,1.654,2.606,2.31,3.99l7.001-0.115
			l0.049,0.133c0.714,1.94,1.252,3.958,1.6,5.997l0.023,0.14l-6.126,3.398c0.063,0.759,0.096,1.534,0.096,2.306
			c0,0.756-0.031,1.512-0.096,2.306l6.126,3.399l-0.023,0.14c-0.347,2.037-0.885,4.054-1.6,5.995l-0.049,0.133l-7.001-0.113
			c-0.658,1.388-1.435,2.729-2.31,3.989l3.598,6.003l-0.091,0.109c-1.319,1.583-2.797,3.06-4.392,4.389l-0.109,0.092l-0.122-0.074
			l-5.857-3.524c-2.489,1.738-3.954,4.576-3.926,7.611l0.03,1.703l-0.134,0.049c-1.936,0.71-3.952,1.248-5.994,1.6l-0.14,0.023
			l-3.403-6.126c-0.766,0.063-1.539,0.096-2.302,0.096c-0.775-0.002-1.551-0.034-2.306-0.096L368.525,414.582z M376.76,408.035
			l0.063,0.114l3.327,5.99c1.924-0.339,3.823-0.846,5.652-1.507l-0.026-1.42c-0.029-3.197,1.527-6.185,4.164-7.991l0.145-0.104
			l5.959,3.586c1.499-1.259,2.891-2.65,4.141-4.138l-3.585-5.981l0.074-0.106c0.917-1.308,1.727-2.706,2.405-4.153l0.055-0.117
			l6.976,0.113c0.665-1.833,1.172-3.732,1.507-5.651l-6.104-3.386l0.011-0.129c0.07-0.83,0.104-1.615,0.104-2.401
			c0-0.804-0.035-1.612-0.104-2.4l-0.012-0.129l6.104-3.387c-0.335-1.921-0.842-3.821-1.507-5.653l-6.976,0.115l-0.055-0.117
			c-0.676-1.443-1.485-2.841-2.405-4.154l-0.074-0.106l3.585-5.983c-1.257-1.494-2.648-2.884-4.14-4.136l-5.968,3.597l-0.106-0.075
			c-1.308-0.92-2.706-1.729-4.155-2.404l-0.118-0.055l0.11-6.979c-1.83-0.661-3.729-1.168-5.653-1.507l-3.39,6.104l-0.13-0.011
			c-1.627-0.14-3.209-0.138-4.796,0l-0.13,0.011l-3.39-6.104c-1.918,0.338-3.817,0.845-5.649,1.508l0.114,6.979l-0.118,0.055
			c-1.446,0.673-2.846,1.482-4.156,2.404l-0.106,0.075l-5.979-3.585c-1.489,1.253-2.882,2.644-4.141,4.138l3.585,5.981l-0.074,0.106
			c-0.918,1.31-1.726,2.708-2.4,4.153l-0.056,0.118l-6.979-0.113c-0.663,1.832-1.17,3.732-1.507,5.653l6.104,3.384l-0.011,0.129
			c-0.071,0.837-0.105,1.623-0.105,2.401c0,0.797,0.035,1.604,0.105,2.4l0.012,0.129l-6.105,3.387
			c0.334,1.916,0.84,3.816,1.504,5.653l6.979-0.115l0.056,0.118c0.678,1.452,1.485,2.85,2.4,4.153l0.074,0.106l-3.585,5.983
			c1.259,1.488,2.65,2.874,4.141,4.124l5.979-3.585l0.106,0.075c1.309,0.92,2.707,1.729,4.156,2.403l0.118,0.055l-0.114,6.979
			c1.828,0.662,3.728,1.169,5.649,1.508l3.389-6.104l0.13,0.011c0.784,0.067,1.592,0.103,2.4,0.104c0.794,0,1.601-0.035,2.396-0.104
			L376.76,408.035z M374.233,400.683c-10.982,0-19.917-8.935-19.917-19.917s8.935-19.917,19.917-19.917s19.917,8.935,19.917,19.917
			S385.216,400.683,374.233,400.683z M374.233,361.25c-10.762,0-19.517,8.755-19.517,19.517c0,10.761,8.755,19.516,19.517,19.516
			s19.517-8.755,19.517-19.516C393.75,370.004,384.995,361.25,374.233,361.25z"/>
	</g>
</g>
<g>
	<g>
		<path fill="#1D1D1B" d="M326.999,351.881c0-0.408,0-0.816-0.054-1.223l3.059-1.697c-0.183-1.016-0.455-2.012-0.815-2.98
			l-3.499,0.059c-0.344-0.732-0.753-1.434-1.223-2.092l1.798-2.998c-0.66-0.79-1.391-1.521-2.181-2.181l-2.997,1.794
			c-0.661-0.467-1.36-0.876-2.092-1.223l0.033-2.039c0.015-0.889-0.577-1.674-1.436-1.904h-0.028
			c-0.856-0.229-1.76,0.154-2.189,0.93l-0.999,1.803c-0.408-0.037-0.815-0.058-1.224-0.058c-0.407,0-0.815,0.021-1.223,0.058
			l-0.999-1.803c-0.433-0.775-1.336-1.158-2.193-0.93h-0.028c-0.858,0.23-1.448,1.016-1.432,1.904l0.033,2.039
			c-0.732,0.348-1.433,0.757-2.096,1.223l-2.993-1.794c-0.791,0.66-1.521,1.391-2.181,2.181l1.794,2.998
			c-0.469,0.66-0.878,1.359-1.224,2.092l-3.494-0.059c-0.355,0.969-0.621,1.965-0.795,2.98l3.054,1.697
			c-0.032,0.406-0.053,0.814-0.053,1.223s0.021,0.814,0.053,1.223l-3.054,1.697c0.174,1.016,0.44,2.012,0.795,2.98l3.494-0.059
			c0.346,0.732,0.755,1.432,1.224,2.092l-1.794,2.998c0.66,0.789,1.391,1.52,2.181,2.18l2.993-1.797
			c0.661,0.469,1.362,0.877,2.096,1.223l-0.058,3.498c0.968,0.355,1.965,0.621,2.98,0.795l1.696-3.059
			c0.407,0.037,0.815,0.055,1.223,0.055c0.408,0,0.815,0,1.224-0.055l1.696,3.059c1.016-0.174,2.013-0.439,2.98-0.795l-0.058-3.498
			c0.732-0.344,1.433-0.754,2.092-1.223l2.997,1.797c0.79-0.66,1.521-1.391,2.181-2.18l-1.798-2.998
			c0.47-0.658,0.879-1.359,1.223-2.092l3.499,0.059c0.359-0.969,0.633-1.965,0.815-2.98l-3.059-1.697
			C326.982,352.695,326.999,352.289,326.999,351.881z M313.124,361.756c-5.444,0-9.858-4.414-9.858-9.859c0,0,0-0.002,0-0.004
			c0-5.441,4.412-9.853,9.854-9.853c0.001,0,0.003,0,0.004,0c5.445,0,9.858,4.414,9.858,9.857
			C322.982,357.342,318.569,361.756,313.124,361.756z"/>
	</g>
	<g>
		<path d="M315.966,368.932l-1.699-3.065c-0.764,0.083-1.508,0.053-2.225-0.004l-1.702,3.069l-0.141-0.024
			c-1.025-0.176-2.04-0.446-3.016-0.805l-0.133-0.049l0.058-3.512c-0.664-0.32-1.302-0.693-1.902-1.109l-3.004,1.803l-0.109-0.091
			c-0.796-0.666-1.539-1.407-2.206-2.205l-0.091-0.109l1.8-3.009c-0.419-0.602-0.792-1.239-1.11-1.898l-3.508,0.059l-0.049-0.133
			c-0.359-0.982-0.629-1.996-0.804-3.016l-0.024-0.14l3.066-1.704c-0.029-0.403-0.044-0.767-0.044-1.11
			c0-0.344,0.015-0.709,0.044-1.11l-3.066-1.704l0.024-0.14c0.175-1.024,0.446-2.039,0.804-3.016l0.049-0.133l3.508,0.059
			c0.319-0.659,0.691-1.296,1.11-1.898l-1.8-3.008l0.091-0.109c0.668-0.8,1.411-1.542,2.206-2.206l0.109-0.091l3.004,1.801
			c0.606-0.418,1.245-0.791,1.902-1.11l-0.031-1.911c-0.019-0.982,0.632-1.846,1.58-2.101l0.052-0.007
			c0.157-0.041,0.342-0.065,0.527-0.065c0.775,0,1.491,0.421,1.869,1.098l0.937,1.69c0.764-0.063,1.458-0.063,2.222,0l0.937-1.689
			c0.46-0.831,1.464-1.266,2.39-1.033l0.055,0.007c0.948,0.255,1.6,1.119,1.584,2.101l-0.031,1.911
			c0.657,0.319,1.295,0.691,1.898,1.109l3.008-1.8l0.108,0.091c0.798,0.666,1.54,1.408,2.206,2.206l0.092,0.109l-1.805,3.008
			c0.418,0.598,0.791,1.236,1.109,1.898l3.512-0.059l0.05,0.132c0.363,0.977,0.641,1.991,0.825,3.015l0.025,0.141l-3.066,1.702
			c0.039,0.374,0.039,0.749,0.039,1.113c0,0.385-0.015,0.75-0.044,1.111l3.071,1.704l-0.025,0.141
			c-0.184,1.02-0.461,2.034-0.825,3.015l-0.049,0.133l-3.513-0.059c-0.318,0.663-0.691,1.3-1.109,1.898l1.805,3.008l-0.092,0.109
			c-0.667,0.797-1.409,1.539-2.206,2.205l-0.108,0.091l-3.008-1.803c-0.604,0.421-1.241,0.793-1.898,1.11l0.058,3.511l-0.133,0.049
			c-0.976,0.358-1.99,0.629-3.016,0.805L315.966,368.932z M307.455,367.776c0.867,0.31,1.765,0.55,2.673,0.713l1.69-3.048
			l0.13,0.012c0.788,0.071,1.615,0.105,2.401,0.001l0.135-0.018l1.693,3.053c0.908-0.163,1.806-0.403,2.673-0.713l-0.058-3.484
			l0.117-0.055c0.716-0.336,1.409-0.741,2.061-1.205l0.106-0.076l2.987,1.791c0.701-0.596,1.357-1.252,1.955-1.954l-1.792-2.988
			l0.076-0.107c0.46-0.645,0.865-1.338,1.205-2.061l0.055-0.117l3.486,0.059c0.315-0.873,0.562-1.771,0.731-2.673l-3.047-1.69
			l0.012-0.13c0.035-0.392,0.053-0.786,0.053-1.205c0-0.395,0-0.803-0.052-1.196l-0.018-0.135l3.052-1.693
			c-0.171-0.907-0.417-1.805-0.731-2.673l-3.486,0.059l-0.055-0.117c-0.34-0.723-0.745-1.416-1.205-2.061l-0.076-0.107l1.792-2.987
			c-0.597-0.702-1.253-1.359-1.955-1.955l-2.986,1.787l-0.106-0.075c-0.651-0.46-1.346-0.866-2.063-1.206l-0.116-0.055l0.035-2.168
			c0.014-0.79-0.505-1.486-1.263-1.701l-0.053-0.006c-0.761-0.203-1.585,0.151-1.963,0.833l-1.063,1.917l-0.13-0.012
			c-0.835-0.076-1.578-0.076-2.409,0l-0.13,0.012l-1.063-1.917c-0.38-0.682-1.206-1.036-1.967-0.833l-0.052,0.007
			c-0.747,0.2-1.275,0.902-1.26,1.7l0.035,2.168l-0.116,0.055c-0.717,0.34-1.412,0.746-2.067,1.206l-0.106,0.075l-2.982-1.787
			c-0.7,0.594-1.357,1.251-1.955,1.955l1.788,2.987l-0.076,0.106c-0.461,0.649-0.867,1.343-1.206,2.062l-0.055,0.117l-3.48-0.059
			c-0.311,0.869-0.55,1.766-0.713,2.673l3.042,1.69l-0.01,0.128c-0.035,0.442-0.052,0.837-0.052,1.207
			c0,0.368,0.017,0.763,0.052,1.207l0.01,0.128l-3.042,1.69c0.163,0.903,0.402,1.8,0.713,2.673l3.48-0.059l0.055,0.117
			c0.339,0.719,0.745,1.413,1.206,2.062l0.076,0.106l-1.788,2.987c0.597,0.702,1.254,1.359,1.955,1.955l2.983-1.791l0.106,0.076
			c0.646,0.458,1.341,0.863,2.065,1.205l0.117,0.055L307.455,367.776z M313.124,361.956c-5.546,0-10.059-4.513-10.059-10.06
			c0-5.547,4.511-10.057,10.055-10.057h0.004c5.546,0,10.059,4.512,10.059,10.057C323.183,357.443,318.67,361.956,313.124,361.956z
			 M313.12,342.24c-5.323,0-9.654,4.33-9.654,9.653c0,5.33,4.333,9.663,9.658,9.663s9.658-4.333,9.658-9.659
			c0-5.325-4.333-9.657-9.658-9.657H313.12z"/>
	</g>
</g>
<g>
	<g>
		<path fill="#1D1D1B" d="M467.417,463.716c0-0.428,0-0.814-0.054-1.223l3.14-1.746c-0.177-1.045-0.449-2.07-0.815-3.064
			l-3.592,0.061c-0.353-0.752-0.771-1.473-1.248-2.152l1.847-3.078c-0.676-0.816-1.427-1.566-2.242-2.242l-3.078,1.846
			c-0.68-0.477-1.4-0.895-2.152-1.248l0.061-3.592c-0.994-0.365-2.021-0.639-3.065-0.814l-1.745,3.139
			c-0.408-0.037-0.815-0.053-1.224-0.053c-0.407,0-0.815,0-1.223,0.053l-1.745-3.139c-1.044,0.176-2.068,0.449-3.062,0.814
			l0.057,3.592c-0.751,0.354-1.47,0.771-2.148,1.248l-3.082-1.846c-0.813,0.678-1.564,1.428-2.243,2.242l1.848,3.078
			c-0.47,0.68-0.879,1.4-1.224,2.152l-3.592-0.061c-0.364,0.994-0.637,2.021-0.815,3.064l3.144,1.746
			c-0.037,0.408-0.058,0.814-0.058,1.223s0,0.816,0.058,1.244l-3.144,1.744c0.179,1.043,0.451,2.068,0.815,3.063l3.592-0.057
			c0.345,0.75,0.754,1.469,1.224,2.148l-1.848,3.082c0.681,0.811,1.432,1.561,2.243,2.242l3.082-1.848
			c0.679,0.477,1.397,0.893,2.148,1.244l-0.057,3.592c0.993,0.365,2.019,0.637,3.062,0.816l1.745-3.145
			c0.407,0.037,0.815,0.057,1.223,0.057c0.408,0,0.815-0.02,1.224-0.057l1.745,3.145c1.044-0.18,2.07-0.451,3.065-0.816
			l-0.061-3.592c0.752-0.352,1.473-0.768,2.152-1.244l3.078,1.848c0.813-0.678,1.564-1.43,2.242-2.242l-1.847-3.082
			c0.478-0.68,0.896-1.398,1.248-2.148l3.592,0.057c0.366-0.994,0.639-2.018,0.815-3.063l-3.14-1.744
			C467.4,464.552,467.417,464.144,467.417,463.716z M453.285,473.856c-5.598,0-10.136-4.539-10.136-10.137c0-0.002,0-0.002,0-0.004
			c0.002-5.596,4.539-10.131,10.136-10.131c5.598,0,10.136,4.537,10.136,10.135S458.883,473.856,453.285,473.856z"/>
	</g>
	<g>
		<path d="M450.387,481.209l-0.141-0.024c-1.063-0.184-2.104-0.461-3.097-0.826l-0.133-0.049l0.057-3.604
			c-0.679-0.326-1.335-0.706-1.954-1.132l-3.094,1.854l-0.109-0.092c-0.82-0.689-1.583-1.452-2.268-2.267l-0.092-0.109l1.855-3.095
			c-0.42-0.619-0.794-1.275-1.113-1.953l-3.604,0.057l-0.049-0.134c-0.367-1-0.645-2.042-0.825-3.097l-0.023-0.141l3.149-1.747
			c-0.043-0.392-0.043-0.769-0.043-1.135c0-0.361,0.016-0.727,0.047-1.11l-3.153-1.752l0.023-0.141
			c0.182-1.058,0.459-2.1,0.825-3.099l0.049-0.134l3.604,0.061c0.32-0.682,0.693-1.339,1.113-1.957l-1.854-3.09l0.091-0.109
			c0.683-0.819,1.446-1.583,2.269-2.268l0.109-0.091l3.093,1.852c0.621-0.428,1.277-0.809,1.954-1.135l-0.057-3.605l0.133-0.049
			c1.007-0.37,2.049-0.647,3.098-0.824l0.14-0.023l1.748,3.146c0.779-0.081,1.541-0.053,2.225,0.004l1.751-3.149l0.14,0.023
			c1.051,0.177,2.094,0.454,3.102,0.824l0.133,0.049l-0.061,3.605c0.68,0.326,1.337,0.708,1.958,1.135l3.089-1.852l0.109,0.09
			c0.825,0.685,1.589,1.448,2.269,2.269l0.09,0.109l-1.853,3.089c0.428,0.621,0.81,1.278,1.135,1.958l3.605-0.061l0.049,0.133
			c0.369,1.001,0.646,2.044,0.825,3.101l0.023,0.14l-3.146,1.749c0.039,0.373,0.039,0.733,0.039,1.113
			c0,0.398-0.015,0.77-0.044,1.132l3.15,1.75l-0.023,0.14c-0.179,1.054-0.456,2.097-0.825,3.099l-0.049,0.133l-3.605-0.057
			c-0.325,0.676-0.706,1.332-1.135,1.954l1.853,3.093l-0.091,0.109c-0.687,0.823-1.449,1.586-2.268,2.268l-0.109,0.091l-3.089-1.854
			c-0.619,0.425-1.276,0.806-1.958,1.132l0.061,3.604l-0.133,0.049c-0.995,0.365-2.038,0.644-3.101,0.826l-0.141,0.023l-1.751-3.155
			c-0.751,0.063-1.475,0.063-2.222,0L450.387,481.209z M454.583,477.632l1.739,3.134c0.943-0.17,1.87-0.417,2.758-0.734
			l-0.061-3.578l0.117-0.056c0.742-0.347,1.456-0.759,2.122-1.227l0.106-0.074l3.067,1.841c0.723-0.612,1.4-1.29,2.017-2.017
			l-1.84-3.071l0.074-0.106c0.472-0.67,0.886-1.383,1.231-2.118l0.055-0.117l3.578,0.057c0.321-0.894,0.567-1.819,0.733-2.755
			l-3.129-1.738l0.012-0.13c0.035-0.391,0.053-0.792,0.053-1.226c0-0.43,0-0.802-0.052-1.196l-0.018-0.135l3.134-1.743
			c-0.166-0.938-0.413-1.863-0.733-2.757l-3.578,0.061l-0.055-0.117c-0.347-0.739-0.761-1.453-1.231-2.122l-0.074-0.106l1.84-3.067
			c-0.61-0.726-1.287-1.402-2.017-2.017l-3.067,1.839l-0.106-0.074c-0.669-0.47-1.383-0.884-2.122-1.231l-0.117-0.055l0.061-3.578
			c-0.898-0.321-1.824-0.567-2.758-0.732l-1.739,3.128l-0.13-0.012c-0.738-0.068-1.581-0.107-2.402-0.001l-0.134,0.018l-1.742-3.133
			c-0.932,0.165-1.856,0.41-2.754,0.732l0.057,3.578l-0.117,0.055c-0.736,0.347-1.449,0.761-2.118,1.231l-0.106,0.074l-3.071-1.839
			c-0.727,0.615-1.404,1.293-2.018,2.017l1.841,3.066l-0.074,0.105c-0.46,0.667-0.866,1.381-1.206,2.122l-0.055,0.119l-3.579-0.061
			c-0.318,0.892-0.564,1.817-0.733,2.757l3.133,1.74l-0.012,0.13c-0.038,0.42-0.057,0.814-0.057,1.204c0,0.413,0,0.803,0.056,1.218
			l0.019,0.135l-3.139,1.741c0.168,0.938,0.415,1.862,0.733,2.755l3.579-0.057l0.055,0.118c0.339,0.738,0.745,1.451,1.206,2.119
			l0.074,0.105l-1.841,3.07c0.615,0.721,1.293,1.397,2.018,2.017l3.071-1.841l0.106,0.074c0.666,0.469,1.379,0.881,2.118,1.228
			l0.117,0.055l-0.057,3.578c0.886,0.317,1.811,0.564,2.754,0.734l1.739-3.134l0.13,0.012c0.813,0.074,1.595,0.074,2.409,0
			L454.583,477.632z M453.285,474.057c-5.699,0-10.336-4.638-10.336-10.337c0.002-5.7,4.639-10.335,10.336-10.335
			c5.699,0,10.336,4.637,10.336,10.335C463.621,469.419,458.984,474.057,453.285,474.057z M453.285,453.785
			c-5.477,0-9.934,4.455-9.936,9.931c0,5.483,4.457,9.94,9.936,9.94s9.936-4.457,9.936-9.937
			C463.221,458.241,458.764,453.785,453.285,453.785z"/>
	</g>
</g>
<g>
	<g>
		<path fill="#1D1D1B" d="M589.651,404.396c0.864-2.299,1.512-4.671,1.935-7.087l-7.395-4.026c0.083-0.946,0.131-1.904,0.131-2.871
			c0-0.97-0.048-1.929-0.131-2.875l7.375-4.045c-0.423-2.416-1.071-4.787-1.934-7.086l-8.443,0.137
			c-0.826-1.739-1.805-3.407-2.926-4.979l4.34-7.126c-1.594-1.883-3.358-3.619-5.271-5.189l-7.236,4.273
			c-1.593-1.103-3.282-2.063-5.046-2.875l0.141-8.313c-2.336-0.849-4.745-1.486-7.198-1.904l-4.102,7.27
			c-0.962-0.082-1.934-0.128-2.917-0.128s-1.958,0.046-2.919,0.128l-4.103-7.27c-2.452,0.419-4.862,1.056-7.198,1.904l0.142,8.313
			c-1.77,0.814-3.461,1.776-5.058,2.88l-7.237-4.271c-1.912,1.568-3.676,3.306-5.27,5.189l4.339,7.125
			c-1.121,1.573-2.099,3.239-2.925,4.98l-8.443-0.139c-0.863,2.299-1.511,4.672-1.934,7.087l7.383,4.039
			c-0.083,0.946-0.13,1.904-0.13,2.875c0,0.97,0.047,1.924,0.13,2.871l-7.363,4.026c0.419,2.414,1.063,4.787,1.922,7.087l8.444-0.14
			c0.824,1.742,1.804,3.408,2.925,4.98l-4.339,7.126c1.594,1.883,3.357,3.619,5.27,5.189l7.237-4.273
			c1.596,1.104,3.288,2.067,5.058,2.88l-0.142,8.313c2.336,0.851,4.744,1.487,7.198,1.905l4.102-7.27
			c0.962,0.083,1.934,0.126,2.919,0.127c0.985,0.002,1.958-0.041,2.917-0.127l4.103,7.27c2.453-0.416,4.863-1.055,7.197-1.905
			l-0.141-8.313c1.769-0.813,3.46-1.775,5.058-2.88l7.236,4.273c1.912-1.57,3.676-3.307,5.271-5.189l-4.34-7.126
			c1.122-1.572,2.101-3.238,2.926-4.98L589.651,404.396z M550.98,413.847c-13.152,0-23.815-10.497-23.815-23.448
			c0-12.95,10.663-23.45,23.815-23.45c-0.001,0-0.001,0-0.001,0h0.001l0,0c13.152,0,23.814,10.5,23.814,23.45
			C574.795,403.35,564.133,413.847,550.98,413.847z"/>
	</g>
	<g>
		<path d="M544.067,430.599l-0.139-0.023c-2.463-0.42-4.896-1.063-7.233-1.915l-0.134-0.049l0.002-0.142l0.14-8.184
			c-1.697-0.787-3.332-1.719-4.864-2.77l-7.247,4.279l-0.108-0.089c-1.918-1.575-3.699-3.329-5.295-5.215l-0.094-0.109l4.346-7.137
			c-1.071-1.516-2.017-3.125-2.811-4.787l-8.457,0.14l-0.05-0.132c-0.861-2.307-1.512-4.703-1.932-7.123l-0.024-0.141l7.375-4.032
			c-0.081-0.954-0.12-1.857-0.12-2.758c0-0.89,0.04-1.819,0.12-2.763l-7.395-4.045l0.024-0.141c0.424-2.42,1.078-4.817,1.943-7.123
			l0.05-0.132l8.456,0.139c0.8-1.669,1.745-3.278,2.811-4.786l-4.346-7.135l0.094-0.11c1.6-1.891,3.382-3.645,5.295-5.214
			l0.108-0.088l7.248,4.277c1.531-1.05,3.166-1.981,4.863-2.77l-0.142-8.325l0.134-0.049c2.338-0.848,4.771-1.492,7.232-1.913
			l0.14-0.023l0.068,0.123l4.04,7.158c0.962-0.078,1.905-0.118,2.808-0.118c0.913,0,1.832,0.039,2.806,0.118l4.107-7.281
			l0.139,0.023c2.461,0.419,4.895,1.063,7.233,1.913l0.134,0.049l-0.002,0.143l-0.139,8.183c1.698,0.79,3.329,1.72,4.853,2.765
			l7.246-4.279l0.108,0.088c1.92,1.576,3.701,3.331,5.296,5.214l0.094,0.11l-4.347,7.137c1.065,1.506,2.011,3.115,2.812,4.785
			l8.456-0.137l0.05,0.132c0.866,2.312,1.521,4.708,1.943,7.122l0.024,0.141l-7.387,4.051c0.08,0.95,0.121,1.879,0.121,2.763
			c0,0.88-0.041,1.808-0.12,2.757l7.405,4.032l-0.024,0.142c-0.424,2.423-1.078,4.819-1.944,7.123l-0.05,0.132l-8.455-0.14
			c-0.798,1.667-1.743,3.276-2.812,4.787l4.347,7.137l-0.094,0.109c-1.598,1.887-3.379,3.641-5.296,5.215l-0.108,0.089l-7.247-4.279
			c-1.535,1.053-3.17,1.983-4.863,2.77l0.141,8.325l-0.134,0.049c-2.343,0.854-4.776,1.498-7.232,1.915l-0.139,0.023l-0.068-0.122
			l-4.04-7.157c-0.904,0.077-1.826,0.116-2.741,0.116h-0.064c-0.935-0.001-1.879-0.04-2.808-0.117L544.067,430.599z M554.01,422.897
			l4.097,7.26c2.339-0.405,4.655-1.019,6.891-1.824l-0.141-8.301l0.119-0.055c1.753-0.806,3.444-1.769,5.027-2.862l0.104-0.073
			l7.227,4.268c1.819-1.506,3.516-3.175,5.043-4.966l-4.333-7.115l0.076-0.107c1.111-1.558,2.09-3.223,2.908-4.95l0.055-0.116
			l8.431,0.14c0.816-2.195,1.438-4.475,1.851-6.778l-7.384-4.02l0.012-0.13c0.086-0.984,0.13-1.944,0.13-2.853
			c0-0.913-0.044-1.874-0.13-2.858l-0.012-0.13l0.115-0.063l7.249-3.976c-0.411-2.296-1.033-4.575-1.85-6.777l-8.431,0.137
			l-0.056-0.116c-0.822-1.731-1.801-3.396-2.908-4.948l-0.076-0.107l4.333-7.115c-1.525-1.789-3.221-3.458-5.043-4.965l-7.227,4.267
			l-0.105-0.073c-1.569-1.086-3.257-2.048-5.016-2.858l-0.118-0.055l0.141-8.3c-2.231-0.802-4.548-1.415-6.892-1.822l-4.095,7.259
			l-0.128-0.011c-1.01-0.085-1.959-0.127-2.9-0.127c-0.931,0-1.907,0.042-2.902,0.127l-0.128,0.011l-0.063-0.112l-4.033-7.147
			c-2.345,0.409-4.661,1.021-6.892,1.822l0.142,8.3l-0.118,0.055c-1.758,0.809-3.449,1.772-5.028,2.863l-0.104,0.073l-7.228-4.265
			c-1.816,1.5-3.512,3.17-5.042,4.965l4.332,7.114l-0.076,0.107c-1.108,1.555-2.087,3.221-2.907,4.95l-0.056,0.116l-8.431-0.139
			c-0.815,2.197-1.438,4.477-1.85,6.779l7.372,4.032l-0.012,0.13c-0.086,0.977-0.129,1.938-0.129,2.858
			c0,0.929,0.042,1.863,0.129,2.853l0.012,0.13l-0.115,0.063l-7.237,3.957c0.408,2.302,1.026,4.581,1.838,6.778l8.433-0.14
			l0.055,0.116c0.814,1.723,1.793,3.388,2.907,4.95l0.076,0.107l-0.068,0.113l-4.264,7.002c1.526,1.79,3.222,3.46,5.042,4.966
			l7.228-4.268l0.105,0.073c1.578,1.092,3.27,2.056,5.026,2.862l0.119,0.055l-0.142,8.301c2.229,0.803,4.547,1.416,6.892,1.824
			l4.095-7.259l0.129,0.011c0.959,0.083,1.936,0.125,2.901,0.126h0.064c0.946,0,1.9-0.042,2.835-0.126L554.01,422.897z
			 M550.98,414.047c-13.242,0-24.016-10.608-24.016-23.648c0-13.041,10.773-23.65,24.016-23.65c13.241,0,24.015,10.609,24.015,23.65
			C574.995,403.438,564.222,414.047,550.98,414.047z M550.98,367.149c-13.021,0-23.615,10.43-23.615,23.25
			c0,12.819,10.594,23.248,23.615,23.248s23.614-10.429,23.614-23.248C574.595,377.579,564.002,367.149,550.98,367.149z"/>
	</g>
</g>
<g>
	<g>
		<path fill="#1D1D1B" d="M474.27,396.906c0-0.559-0.024-1.084-0.069-1.631l4.077-2.279c-0.233-1.359-0.59-2.695-1.063-3.99
			l-4.685,0.076c-0.46-0.98-1.006-1.92-1.631-2.805l2.405-4.015c-0.885-1.063-1.863-2.041-2.924-2.928l-4.016,2.41
			c-0.886-0.625-1.824-1.17-2.805-1.631l0.077-4.686c-1.297-0.477-2.634-0.834-3.995-1.068l-2.275,4.098
			c-0.534-0.049-1.072-0.072-1.631-0.072s-1.089,0.023-1.631,0.072l-2.315-4.064c-1.361,0.232-2.697,0.59-3.992,1.068l0.078,4.686
			c-0.982,0.459-1.923,1.006-2.81,1.631l-4.012-2.41c-1.063,0.885-2.042,1.865-2.928,2.928l2.41,4.015
			c-0.627,0.883-1.173,1.822-1.631,2.805l-4.689-0.078c-0.474,1.297-0.83,2.633-1.063,3.992l4.098,2.279
			c-0.049,0.533-0.074,1.072-0.074,1.631s0.025,1.084,0.074,1.631l-4.073,2.254c0.239,1.357,0.601,2.691,1.08,3.984l4.688-0.078
			c0.459,0.982,1.005,1.922,1.631,2.805l-2.409,4.016c0.885,1.063,1.865,2.041,2.928,2.924l4.012-2.404
			c0.887,0.623,1.827,1.17,2.809,1.631l-0.077,4.684c1.295,0.479,2.631,0.836,3.991,1.068l2.275-4.098
			c0.534,0.045,1.076,0.07,1.631,0.07s1.085-0.025,1.631-0.07l2.275,4.098c1.361-0.232,2.698-0.592,3.995-1.068l-0.077-4.684
			c0.98-0.461,1.919-1.008,2.805-1.631l4.016,2.404c1.061-0.885,2.039-1.863,2.924-2.924l-2.405-4.016
			c0.625-0.885,1.171-1.824,1.631-2.805l4.685,0.078c0.475-1.297,0.83-2.635,1.063-3.996l-4.077-2.275
			C474.245,398.004,474.27,397.465,474.27,396.906z M455.702,410.129c-7.298,0-13.214-5.916-13.214-13.215
			c0-7.297,5.916-13.212,13.215-13.212c7.297,0,13.214,5.916,13.214,13.212C468.917,404.213,463,410.129,455.702,410.129z"/>
	</g>
	<g>
		<path d="M451.936,419.674l-0.14-0.023c-1.37-0.234-2.726-0.597-4.027-1.078l-0.133-0.049l0.077-4.696
			c-0.905-0.434-1.784-0.943-2.614-1.519l-4.022,2.41l-0.109-0.09c-1.071-0.891-2.064-1.883-2.953-2.95l-0.091-0.109l2.415-4.025
			c-0.575-0.823-1.085-1.7-1.519-2.611l-4.701,0.078l-0.049-0.133c-0.482-1.3-0.849-2.651-1.09-4.019l-0.024-0.141l4.085-2.261
			c-0.044-0.522-0.064-1.009-0.064-1.519c0-0.514,0.021-1.013,0.063-1.519l-4.107-2.285l0.023-0.14
			c0.234-1.365,0.596-2.72,1.073-4.027l0.049-0.133l4.702,0.078c0.433-0.911,0.942-1.788,1.519-2.611l-2.416-4.025l0.091-0.109
			c0.894-1.072,1.887-2.066,2.953-2.954l0.109-0.091l4.022,2.417c0.831-0.577,1.709-1.087,2.615-1.519l-0.078-4.698l0.133-0.049
			c1.303-0.481,2.657-0.844,4.028-1.078l0.138-0.023l2.321,4.075c1.01-0.083,2.055-0.083,3.039,0l2.282-4.108l0.14,0.024
			c1.37,0.236,2.726,0.599,4.03,1.078l0.133,0.049l-0.077,4.699c0.91,0.436,1.787,0.946,2.611,1.518l4.026-2.417l0.108,0.091
			c1.071,0.895,2.063,1.889,2.949,2.953l0.091,0.109l-2.411,4.025c0.574,0.825,1.084,1.702,1.519,2.611l4.697-0.076l0.049,0.133
			c0.478,1.305,0.839,2.659,1.073,4.025l0.023,0.139l-4.088,2.286c0.04,0.531,0.06,1.017,0.06,1.519c0,0.507-0.02,1.005-0.06,1.519
			l4.088,2.282l-0.023,0.14c-0.235,1.372-0.597,2.729-1.073,4.03l-0.049,0.134l-4.697-0.078c-0.435,0.909-0.944,1.786-1.519,2.611
			l2.411,4.026l-0.091,0.108c-0.89,1.067-1.882,2.06-2.949,2.949l-0.108,0.091l-4.026-2.41c-0.831,0.575-1.708,1.086-2.611,1.519
			l0.077,4.696l-0.133,0.049c-1.314,0.483-2.671,0.846-4.031,1.078l-0.14,0.023l-2.281-4.108c-1.076,0.081-2.005,0.079-3.037,0
			L451.936,419.674z M457.479,415.146l2.269,4.086c1.244-0.221,2.482-0.552,3.688-0.986l-0.077-4.67l0.117-0.055
			c0.962-0.453,1.896-0.995,2.774-1.614l0.106-0.074l4.005,2.397c0.972-0.82,1.878-1.727,2.698-2.698l-2.398-4.005l0.075-0.106
			c0.615-0.872,1.158-1.806,1.613-2.774l0.055-0.117l4.671,0.078c0.429-1.194,0.759-2.434,0.981-3.688l-4.065-2.27l0.011-0.128
			c0.046-0.549,0.068-1.076,0.068-1.614c0-0.531-0.021-1.044-0.068-1.614l-0.011-0.128l4.065-2.273
			c-0.223-1.249-0.552-2.486-0.981-3.683l-4.671,0.076l-0.055-0.117c-0.455-0.969-0.998-1.903-1.613-2.774l-0.075-0.106l2.398-4.004
			c-0.817-0.969-1.724-1.877-2.698-2.702l-4.005,2.404l-0.106-0.075c-0.87-0.614-1.804-1.157-2.774-1.613l-0.117-0.055l0.077-4.672
			c-1.196-0.431-2.436-0.762-3.688-0.986l-2.27,4.087l-0.13-0.012c-1.044-0.096-2.15-0.098-3.226,0l-0.128,0.012l-2.31-4.054
			c-1.252,0.222-2.49,0.553-3.686,0.986l0.078,4.673l-0.117,0.055c-0.966,0.451-1.9,0.994-2.779,1.613l-0.106,0.075l-4.001-2.404
			c-0.971,0.819-1.879,1.727-2.702,2.703l2.404,4.005l-0.076,0.106c-0.617,0.87-1.16,1.803-1.612,2.773l-0.056,0.118l-4.676-0.078
			c-0.43,1.199-0.76,2.437-0.981,3.685l4.087,2.273l-0.012,0.129c-0.05,0.54-0.073,1.067-0.073,1.613
			c0,0.539,0.023,1.052,0.073,1.613l0.012,0.13l-4.063,2.247c0.229,1.25,0.563,2.485,0.997,3.677l4.676-0.078l0.056,0.117
			c0.453,0.972,0.996,1.904,1.612,2.774l0.075,0.106l-2.402,4.005c0.819,0.972,1.728,1.878,2.702,2.698l4.001-2.397l0.106,0.074
			c0.878,0.618,1.813,1.16,2.778,1.614l0.117,0.055l-0.077,4.671c1.194,0.433,2.432,0.764,3.684,0.985l2.269-4.086l0.129,0.011
			c1.101,0.092,2.075,0.095,3.229,0L457.479,415.146z M455.702,410.329c-7.396,0-13.414-6.019-13.414-13.415
			c0-7.396,6.019-13.413,13.415-13.413s13.414,6.017,13.414,13.413C469.117,404.311,463.099,410.329,455.702,410.329z
			 M455.703,383.902c-7.177,0-13.015,5.837-13.015,13.012c0,7.177,5.838,13.015,13.014,13.015c7.177,0,13.015-5.838,13.015-13.015
			C468.717,389.739,462.879,383.902,455.703,383.902z"/>
	</g>
</g>
<g>
	<g>
		<line fill="#1D1D1B" x1="508.543" y1="469.16" x2="495.532" y2="469.16"/>
	</g>
	<g>
		<rect x="495.532" y="468.96" width="13.011" height="0.4"/>
	</g>
</g>
<g>
	<g>
		<line fill="#1D1D1B" x1="456.38" y1="433.91" x2="429.026" y2="433.91"/>
	</g>
	<g>
		<rect x="429.026" y="433.71" width="27.354" height="0.4"/>
	</g>
</g>
<g>
	<g>
		<line fill="#1D1D1B" x1="480.32" y1="449.57" x2="469.305" y2="449.57"/>
	</g>
	<g>
		<rect x="469.305" y="449.37" width="11.016" height="0.4"/>
	</g>
</g>
<g>
	<g>
		<polyline fill="#1D1D1B" points="554.829,471.299 540.286,471.299 528.568,471.299 		"/>
	</g>
	<g>
		<rect x="528.568" y="471.099" width="26.261" height="0.4"/>
	</g>
</g>
<g>
	<g>
		<line fill="#1D1D1B" x1="507.35" y1="484.5" x2="495.526" y2="484.5"/>
	</g>
	<g>
		<rect x="495.526" y="484.3" width="11.823" height="0.4"/>
	</g>
</g>
<g>
	<g>
		<line fill="#1D1D1B" x1="314.981" y1="330.01" x2="353.306" y2="330.01"/>
	</g>
	<g>
		<rect x="314.981" y="329.81" width="38.324" height="0.4"/>
	</g>
</g>
<g>
	<g>
		<line fill="#1D1D1B" x1="213.388" y1="449.826" x2="199.799" y2="449.826"/>
	</g>
	<g>
		<rect x="199.799" y="449.626" width="13.589" height="0.4"/>
	</g>
</g>
<g>
	<g>
		<line fill="#1D1D1B" x1="191.645" y1="449.826" x2="166.366" y2="449.826"/>
	</g>
	<g>
		<rect x="166.366" y="449.626" width="25.278" height="0.4"/>
	</g>
</g>
<g>
	<g>
		<line fill="#1D1D1B" x1="202.514" y1="436" x2="179.005" y2="436"/>
	</g>
	<g>
		<rect x="179.005" y="435.8" width="23.509" height="0.4"/>
	</g>
</g>
<g>
	<g>
		<line fill="#1D1D1B" x1="210.158" y1="421.232" x2="163.92" y2="421.232"/>
	</g>
	<g>
		<rect x="163.92" y="421.032" width="46.238" height="0.4"/>
	</g>
</g>
<g>
	<g>
		<line fill="#1D1D1B" x1="181.003" y1="410.453" x2="171.353" y2="410.453"/>
	</g>
	<g>
		<rect x="171.353" y="410.253" width="9.65" height="0.4"/>
	</g>
</g>
<g>
	<g>
		<line fill="#1D1D1B" x1="261.909" y1="371.893" x2="238.803" y2="371.893"/>
	</g>
	<g>
		<rect x="238.803" y="371.693" width="23.105" height="0.4"/>
	</g>
</g>
<g>
	<g>
		<line fill="#1D1D1B" x1="399.528" y1="344.167" x2="437.519" y2="344.167"/>
	</g>
	<g>
		<rect x="399.528" y="343.966" width="37.99" height="0.4"/>
	</g>
</g>
<g>
	<g>
		<line fill="#1D1D1B" x1="429.813" y1="358.5" x2="419.482" y2="358.5"/>
	</g>
	<g>
		<rect x="419.482" y="358.3" width="10.331" height="0.4"/>
	</g>
</g>
<g>
	<g>
		<line fill="#1D1D1B" x1="494.983" y1="433.91" x2="483.567" y2="433.91"/>
	</g>
	<g>
		<rect x="483.567" y="433.71" width="11.416" height="0.4"/>
	</g>
</g>
<g>
	<g>
		<line fill="#1D1D1B" x1="330.959" y1="386.265" x2="318.051" y2="386.265"/>
	</g>
	<g>
		<rect x="318.051" y="386.065" width="12.908" height="0.4"/>
	</g>
</g>
<g>
	<g>
		<line fill="#1D1D1B" x1="343.599" y1="441.936" x2="353.652" y2="441.936"/>
	</g>
	<g>
		<rect x="343.599" y="441.735" width="10.054" height="0.4"/>
	</g>
</g>
<g>
	<g>
		<line fill="#1D1D1B" x1="389.629" y1="482.833" x2="347.545" y2="482.833"/>
	</g>
	<g>
		<rect x="347.545" y="482.633" width="42.084" height="0.4"/>
	</g>
</g>
<g>
	<g>
		<line fill="#1D1D1B" x1="426.434" y1="471.693" x2="410.614" y2="471.693"/>
	</g>
	<g>
		<rect x="410.614" y="471.493" width="15.819" height="0.4"/>
	</g>
</g>
<g>
	<g>
		<line fill="#1D1D1B" x1="141.906" y1="348.882" x2="131.51" y2="348.882"/>
	</g>
	<g>
		<rect x="131.51" y="348.682" width="10.396" height="0.4"/>
	</g>
</g>
<g>
	<g>
		<line fill="#1D1D1B" x1="382.796" y1="460.107" x2="374.233" y2="460.107"/>
	</g>
	<g>
		<rect x="374.233" y="459.907" width="8.563" height="0.4"/>
	</g>
</g>
<g>
	<g>
		<line fill="#1D1D1B" x1="392.504" y1="421.59" x2="368.587" y2="421.59"/>
	</g>
	<g>
		<rect x="368.587" y="421.39" width="23.917" height="0.4"/>
	</g>
</g>
<g>
	<g>
		<line fill="#1D1D1B" x1="502.037" y1="338.365" x2="483.567" y2="338.365"/>
	</g>
	<g>
		<rect x="483.567" y="338.165" width="18.47" height="0.4"/>
	</g>
</g>
<g>
	<g>
		<line fill="#1D1D1B" x1="450.512" y1="367.755" x2="430.853" y2="367.755"/>
	</g>
	<g>
		<rect x="430.853" y="367.555" width="19.659" height="0.4"/>
	</g>
</g>
<g>
	<g>
		<line fill="#1D1D1B" x1="516.28" y1="441.416" x2="545.636" y2="441.416"/>
	</g>
	<g>
		<rect x="516.28" y="441.216" width="29.355" height="0.4"/>
	</g>
</g>
<g>
	<g>
		<line fill="#1D1D1B" x1="277.958" y1="360.673" x2="287.813" y2="360.673"/>
	</g>
	<g>
		<rect x="277.958" y="360.473" width="9.854" height="0.4"/>
	</g>
</g>
<g>
	<g>
		<line fill="#1D1D1B" x1="388.698" y1="333.633" x2="396.311" y2="333.633"/>
	</g>
	<g>
		<rect x="388.698" y="333.433" width="7.612" height="0.4"/>
	</g>
</g>
<g>
	<g>
		<path fill="#1D1D1B" d="M85.756,417.194c0-0.75-0.033-1.49-0.098-2.225l5.625-3.125c-0.321-1.869-0.814-3.705-1.474-5.484
			l-6.432,0.107c-0.63-1.346-1.376-2.635-2.229-3.854l3.307-5.517c-1.217-1.454-2.561-2.797-4.015-4.014l-5.508,3.311
			c-1.217-0.854-2.505-1.6-3.853-2.23l0.121-6.436c-1.779-0.656-3.615-1.146-5.484-1.463l-3.125,5.623
			c-0.73-0.064-1.472-0.098-2.225-0.098c-0.752,0-1.494,0.033-2.225,0.098l-3.125-5.623c-1.87,0.318-3.706,0.809-5.485,1.463
			l0.108,6.432c-1.354,0.631-2.651,1.379-3.876,2.234l-5.513-3.311c-1.46,1.215-2.809,2.559-4.029,4.014l3.307,5.517
			c-0.854,1.217-1.598,2.506-2.225,3.854l-6.437-0.107c-0.654,1.779-1.145,3.615-1.464,5.484l5.625,3.125
			c-0.06,0.732-0.098,1.475-0.098,2.225s0.038,1.492,0.098,2.225l-5.625,3.125c0.321,1.869,0.811,3.705,1.464,5.484l6.437-0.107
			c0.627,1.348,1.372,2.637,2.225,3.854l-3.307,5.512c1.216,1.459,2.562,2.805,4.02,4.021l5.513-3.307
			c1.219,0.855,2.512,1.602,3.862,2.234l-0.107,6.436c1.78,0.652,3.616,1.143,5.484,1.463l3.148-5.633
			c0.737,0.064,1.479,0.098,2.225,0.098s1.488-0.033,2.225-0.098l3.125,5.625c1.869-0.32,3.705-0.811,5.484-1.465l-0.13-6.426
			c1.352-0.629,2.644-1.377,3.862-2.234l5.517,3.307c1.456-1.219,2.8-2.563,4.016-4.021l-3.307-5.512
			c0.853-1.219,1.599-2.508,2.229-3.854l6.431,0.107c0.646-1.779,1.127-3.617,1.437-5.484l-5.597-3.125
			C85.724,418.685,85.756,417.944,85.756,417.194z M60.343,435.341c-10.022,0-18.147-8.123-18.147-18.146
			s8.125-18.146,18.147-18.146c10.022,0,18.146,8.123,18.146,18.146S70.365,435.341,60.343,435.341z"/>
	</g>
	<g>
		<path d="M55.099,448.354l-0.139-0.023c-1.873-0.321-3.729-0.816-5.52-1.473l-0.133-0.049l0.107-6.448
			c-1.282-0.609-2.515-1.322-3.668-2.122l-5.523,3.313l-0.109-0.091c-1.465-1.223-2.827-2.584-4.046-4.047l-0.091-0.109l3.313-5.522
			c-0.802-1.156-1.512-2.386-2.112-3.659l-6.449,0.107l-0.049-0.133c-0.656-1.787-1.152-3.644-1.474-5.52l-0.024-0.14l5.636-3.132
			c-0.06-0.757-0.088-1.448-0.088-2.112s0.029-1.355,0.088-2.112l-5.636-3.131l0.024-0.141c0.321-1.873,0.816-3.73,1.474-5.52
			l0.049-0.133l6.449,0.107c0.599-1.271,1.309-2.501,2.112-3.659l-3.313-5.528l0.091-0.109c1.225-1.461,2.589-2.82,4.055-4.039
			l0.109-0.091l5.523,3.317c1.167-0.807,2.405-1.52,3.682-2.123l-0.108-6.444l0.133-0.049c1.79-0.658,3.647-1.153,5.521-1.473
			l0.14-0.023l3.13,5.633c1.399-0.116,2.829-0.115,4.226,0l3.131-5.633l0.139,0.023c1.875,0.317,3.732,0.813,5.521,1.473
			l0.133,0.049l-0.121,6.448c1.272,0.604,2.501,1.315,3.658,2.118l5.519-3.317l0.109,0.091c1.459,1.22,2.818,2.579,4.04,4.04
			l0.091,0.108l-3.313,5.528c0.803,1.159,1.515,2.389,2.118,3.659l6.444-0.107l0.049,0.133c0.663,1.788,1.162,3.646,1.483,5.52
			l0.024,0.14l-5.636,3.132c0.058,0.695,0.088,1.405,0.088,2.112s-0.03,1.417-0.088,2.113l5.606,3.13l-0.023,0.139
			c-0.311,1.878-0.797,3.735-1.446,5.521l-0.049,0.134l-6.444-0.107c-0.604,1.271-1.315,2.5-2.117,3.659l3.313,5.522l-0.091,0.109
			c-1.214,1.457-2.574,2.818-4.042,4.047l-0.109,0.092l-5.528-3.313c-1.16,0.808-2.393,1.521-3.667,2.122l0.13,6.438l-0.134,0.049
			c-1.785,0.657-3.643,1.152-5.52,1.475l-0.14,0.023l-3.131-5.636c-1.409,0.117-2.816,0.117-4.226,0L55.099,448.354z
			 M49.711,446.531c1.682,0.607,3.421,1.072,5.177,1.381l3.143-5.622l0.129,0.012c1.472,0.129,2.945,0.129,4.414,0l0.129-0.012
			l3.119,5.614c1.759-0.31,3.498-0.774,5.176-1.382l-0.13-6.413l0.118-0.056c1.335-0.621,2.624-1.366,3.831-2.216l0.106-0.075
			l0.112,0.066l5.395,3.233c1.371-1.158,2.646-2.434,3.791-3.796l-3.301-5.501l0.074-0.105c0.845-1.207,1.589-2.494,2.212-3.824
			l0.055-0.117l6.417,0.107c0.601-1.677,1.056-3.417,1.355-5.177l-5.587-3.119l0.012-0.129c0.064-0.726,0.097-1.468,0.097-2.207
			s-0.033-1.481-0.097-2.207l-0.012-0.129l5.615-3.119c-0.31-1.757-0.778-3.497-1.391-5.177l-6.419,0.107l-0.055-0.117
			c-0.623-1.33-1.367-2.617-2.212-3.824l-0.074-0.105l3.3-5.506c-1.152-1.364-2.426-2.638-3.79-3.789l-5.497,3.304l-0.106-0.075
			c-1.204-0.844-2.49-1.589-3.823-2.213l-0.118-0.055l0.121-6.423c-1.68-0.611-3.419-1.075-5.176-1.38l-3.119,5.612l-0.129-0.011
			c-1.457-0.129-2.956-0.129-4.414,0l-0.129,0.011l-3.119-5.612c-1.756,0.308-3.496,0.771-5.177,1.381l0.108,6.419l-0.118,0.055
			c-1.337,0.623-2.631,1.369-3.846,2.217l-0.106,0.074l-5.502-3.304c-1.369,1.15-2.648,2.423-3.803,3.789l3.3,5.506l-0.075,0.106
			c-0.846,1.205-1.588,2.491-2.207,3.822l-0.055,0.118l-6.424-0.107c-0.609,1.681-1.073,3.421-1.382,5.177l5.613,3.118l-0.011,0.129
			c-0.065,0.796-0.097,1.518-0.097,2.208s0.032,1.412,0.097,2.208l0.011,0.129l-5.613,3.118c0.311,1.759,0.775,3.498,1.382,5.177
			l6.424-0.107l0.055,0.118c0.621,1.333,1.363,2.619,2.207,3.822l0.075,0.106l-3.3,5.501c1.15,1.367,2.425,2.644,3.795,3.796
			l5.501-3.3l0.106,0.074c1.199,0.842,2.489,1.588,3.832,2.218l0.117,0.055L49.711,446.531z M60.343,435.541
			c-10.117,0-18.348-8.23-18.348-18.347s8.231-18.347,18.348-18.347c10.116,0,18.347,8.23,18.347,18.347
			S70.459,435.541,60.343,435.541z M60.343,399.248c-9.896,0-17.947,8.051-17.947,17.946s8.051,17.946,17.947,17.946
			c9.896,0,17.946-8.051,17.946-17.946S70.239,399.248,60.343,399.248z"/>
	</g>
</g>
<g>
	<g>
		<path fill="#1D1D1B" d="M142.853,469.153c0-0.424,0-0.84-0.056-1.25l3.167-1.758c-0.179-1.051-0.452-2.082-0.816-3.082
			l-3.633,0.07c-0.353-0.76-0.773-1.484-1.254-2.17l1.865-3.102c-0.684-0.82-1.441-1.574-2.262-2.258l-3.102,1.865
			c-0.683-0.48-1.407-0.9-2.164-1.254l0.056-3.619c-1-0.369-2.032-0.645-3.083-0.826l-1.758,3.168
			c-0.415-0.037-0.831-0.057-1.25-0.057c-0.42,0-0.839,0-1.254,0.057l-1.758-3.168c-1.051,0.182-2.083,0.457-3.083,0.826
			l0.061,3.619c-0.759,0.352-1.485,0.771-2.169,1.254l-3.101-1.865c-0.821,0.684-1.579,1.438-2.262,2.258l1.866,3.102
			c-0.482,0.686-0.901,1.41-1.254,2.17l-3.62-0.063c-0.366,1.004-0.642,2.037-0.826,3.088l3.167,1.758
			c-0.037,0.41-0.056,0.83-0.056,1.25s0,0.84,0.056,1.25l-3.167,1.76c0.185,1.049,0.463,2.08,0.831,3.082l3.619-0.061
			c0.353,0.758,0.773,1.484,1.254,2.17l-1.866,3.1c0.686,0.816,1.442,1.57,2.262,2.252l3.102-1.865
			c0.685,0.48,1.411,0.898,2.168,1.25l-0.061,3.625c1,0.367,2.032,0.643,3.083,0.82l1.758-3.162c0.415,0.033,0.83,0.057,1.254,0.057
			s0.835-0.023,1.25-0.057l1.758,3.162c1.051-0.178,2.083-0.453,3.083-0.82l-0.056-3.625c0.756-0.354,1.48-0.77,2.164-1.25
			l3.102,1.865c0.82-0.684,1.577-1.439,2.262-2.26l-1.865-3.104c0.481-0.684,0.901-1.408,1.254-2.168l3.62,0.061
			c0.369-1.002,0.645-2.035,0.825-3.088l-3.167-1.758C142.834,469.993,142.853,469.577,142.853,469.153z M138.776,469.177
			c-0.01,5.629-4.575,10.188-10.204,10.191v0.018c-5.639,0.004-10.211-4.566-10.214-10.205c-0.002-5.637,4.566-10.209,10.205-10.213
			c5.639-0.002,10.211,4.566,10.213,10.205C138.776,469.173,138.776,469.175,138.776,469.177z"/>
	</g>
	<g>
		<path d="M131.47,486.771l-1.765-3.174c-0.869,0.065-1.415,0.064-2.28,0l-1.765,3.174l-0.139-0.023
			c-1.056-0.179-2.105-0.458-3.119-0.83l-0.133-0.049l0.061-3.638c-0.686-0.326-1.349-0.708-1.974-1.138l-3.112,1.871l-0.109-0.091
			c-0.825-0.686-1.595-1.452-2.288-2.276l-0.092-0.109l1.873-3.111c-0.431-0.626-0.815-1.29-1.142-1.976l-3.632,0.061l-0.049-0.133
			c-0.371-1.013-0.654-2.062-0.839-3.117l-0.025-0.14l3.174-1.764c-0.041-0.38-0.041-0.766-0.041-1.141
			c0-0.383,0.016-0.765,0.045-1.138l-3.178-1.765l0.025-0.14c0.185-1.06,0.466-2.109,0.834-3.122l0.049-0.134l3.633,0.063
			c0.326-0.685,0.709-1.348,1.142-1.976l-1.872-3.112l0.091-0.109c0.685-0.821,1.454-1.59,2.288-2.283l0.109-0.092l3.111,1.872
			c0.625-0.433,1.289-0.816,1.975-1.142l-0.061-3.632l0.133-0.049c1.003-0.37,2.052-0.651,3.118-0.836l0.14-0.024l1.762,3.175
			c0.766-0.083,1.515-0.058,2.283,0.005l1.764-3.18l0.14,0.024c1.065,0.185,2.114,0.466,3.118,0.836l0.133,0.049l-0.056,3.632
			c0.683,0.327,1.345,0.71,1.969,1.142l3.112-1.872l0.109,0.092c0.832,0.692,1.602,1.461,2.288,2.283l0.091,0.109l-1.872,3.112
			c0.434,0.629,0.817,1.293,1.142,1.976l3.646-0.071l0.049,0.135c0.367,1.007,0.645,2.056,0.826,3.117l0.023,0.14l-3.173,1.761
			c0.042,0.38,0.042,0.766,0.042,1.141c0,0.384-0.016,0.767-0.046,1.138l3.178,1.764l-0.024,0.141
			c-0.182,1.06-0.462,2.111-0.835,3.123l-0.049,0.133l-3.632-0.061c-0.326,0.685-0.709,1.348-1.142,1.974l1.872,3.114l-0.091,0.109
			c-0.688,0.825-1.458,1.594-2.287,2.285l-0.109,0.092l-3.113-1.872c-0.617,0.425-1.279,0.808-1.969,1.138l0.056,3.638l-0.133,0.049
			c-1.013,0.372-2.062,0.651-3.118,0.83L131.47,486.771z M129.93,483.178l1.752,3.15c0.938-0.167,1.871-0.415,2.774-0.738
			l-0.056-3.611l0.118-0.056c0.752-0.352,1.47-0.766,2.133-1.232l0.107-0.074l3.091,1.858c0.733-0.621,1.417-1.305,2.036-2.034
			l-1.859-3.093l0.075-0.106c0.475-0.674,0.891-1.394,1.237-2.137l0.055-0.118l3.607,0.061c0.324-0.903,0.573-1.837,0.743-2.78
			l-3.156-1.752l0.012-0.13c0.037-0.4,0.055-0.814,0.055-1.231c0-0.425,0-0.826-0.054-1.223l-0.019-0.136l3.162-1.755
			c-0.168-0.943-0.415-1.875-0.734-2.773l-3.62,0.069l-0.055-0.118c-0.345-0.741-0.761-1.461-1.237-2.139l-0.075-0.106l1.858-3.091
			c-0.617-0.728-1.301-1.41-2.036-2.032l-3.091,1.858l-0.106-0.075c-0.672-0.473-1.39-0.889-2.133-1.235l-0.118-0.056l0.056-3.605
			c-0.896-0.323-1.829-0.572-2.775-0.744l-1.752,3.157l-0.129-0.012c-0.851-0.076-1.676-0.108-2.46-0.001l-0.135,0.019l-1.755-3.163
			c-0.947,0.172-1.879,0.422-2.775,0.743l0.061,3.607l-0.118,0.055c-0.746,0.345-1.465,0.761-2.138,1.235l-0.106,0.075l-3.091-1.858
			c-0.737,0.623-1.42,1.306-2.036,2.032l1.859,3.091l-0.075,0.106c-0.475,0.676-0.891,1.396-1.237,2.139l-0.055,0.118l-3.606-0.063
			c-0.321,0.904-0.571,1.839-0.743,2.78l3.156,1.752l-0.012,0.129c-0.037,0.402-0.055,0.817-0.055,1.232
			c0,0.406,0,0.826,0.054,1.223l0.018,0.136l-3.161,1.757c0.173,0.938,0.424,1.87,0.748,2.774l3.606-0.061l0.055,0.118
			c0.348,0.745,0.764,1.465,1.237,2.139l0.075,0.106l-1.859,3.089c0.623,0.729,1.307,1.41,2.036,2.026l3.091-1.858l0.106,0.074
			c0.672,0.472,1.392,0.887,2.138,1.232l0.118,0.055l-0.061,3.612c0.905,0.324,1.837,0.572,2.775,0.738l1.752-3.15l0.128,0.011
			c0.958,0.077,1.507,0.077,2.472,0L129.93,483.178z M128.572,479.586c-5.743,0-10.412-4.668-10.414-10.405
			s4.665-10.409,10.405-10.413h0.003c5.738,0,10.408,4.668,10.41,10.405c-0.01,5.663-4.569,10.282-10.204,10.394v0.002
			L128.572,479.586z M128.566,458.968l-0.003,0.2c-5.519,0.004-10.007,4.495-10.004,10.013c0.002,5.459,4.397,9.91,9.832,10.004
			l0.182-0.017c5.507-0.004,9.995-4.486,10.004-9.991c-0.002-5.521-4.492-10.009-10.01-10.009V458.968z"/>
	</g>
</g>
<g>
	<g>
		<path fill="#1D1D1B" d="M224.719,363.167c0-0.657-0.029-1.306-0.086-1.944l4.916-2.732c-0.277-1.634-0.705-3.238-1.279-4.795
			l-5.623,0.094c-0.551-1.176-1.203-2.303-1.947-3.367l2.891-4.819c-1.064-1.274-2.238-2.45-3.512-3.515l-4.822,2.891
			c-1.064-0.746-2.191-1.397-3.367-1.948l0.094-5.622c-1.557-0.572-3.162-1-4.795-1.281l-2.732,4.918
			c-0.639-0.058-1.287-0.086-1.945-0.086c-0.656,0-1.305,0.028-1.943,0.086l-2.732-4.918c-1.635,0.281-3.238,0.709-4.795,1.281
			l0.094,5.622c-1.178,0.551-2.303,1.202-3.367,1.948l-4.816-2.891c-1.271,1.064-2.447,2.24-3.51,3.515l2.891,4.819
			c-0.744,1.064-1.396,2.191-1.949,3.367l-5.622-0.094c-0.574,1.557-1.002,3.161-1.28,4.795l4.917,2.732
			c-0.057,0.641-0.086,1.289-0.086,1.944s0.029,1.304,0.086,1.944l-4.917,2.732c0.278,1.633,0.706,3.24,1.28,4.795l5.622-0.094
			c0.551,1.176,1.203,2.303,1.948,3.367l-2.891,4.824c1.064,1.271,2.239,2.445,3.511,3.51l4.823-2.891
			c1.062,0.746,2.186,1.396,3.359,1.949l-0.094,5.621c1.556,0.574,3.161,1.002,4.795,1.281l2.732-4.918
			c0.639,0.059,1.287,0.086,1.944,0.086s1.306-0.027,1.944-0.086l2.732,4.918c1.634-0.279,3.238-0.707,4.795-1.281l-0.094-5.621
			c1.176-0.551,2.303-1.203,3.367-1.949l4.823,2.891c1.271-1.064,2.446-2.238,3.511-3.51l-2.891-4.824
			c0.745-1.064,1.397-2.191,1.948-3.367l5.623,0.094c0.574-1.555,1.002-3.162,1.279-4.795l-4.916-2.732
			C224.689,364.472,224.719,363.824,224.719,363.167z M202.51,379.031c-8.762,0-15.863-7.104-15.863-15.864
			c0-8.762,7.102-15.864,15.863-15.864s15.865,7.103,15.865,15.864C218.375,371.927,211.271,379.031,202.51,379.031z"/>
	</g>
	<g>
		<path d="M207.081,390.428l-2.738-4.929c-1.177,0.101-2.488,0.101-3.665,0l-2.738,4.929l-0.14-0.024
			c-1.648-0.282-3.273-0.716-4.831-1.291l-0.133-0.049l0.094-5.634c-1.107-0.529-2.171-1.146-3.166-1.836l-4.834,2.897l-0.109-0.091
			c-1.279-1.07-2.468-2.26-3.536-3.535l-0.091-0.109l2.897-4.835c-0.696-1.006-1.313-2.072-1.836-3.173l-5.634,0.094l-0.049-0.133
			c-0.575-1.556-1.009-3.181-1.29-4.831l-0.024-0.14l4.928-2.738c-0.05-0.609-0.076-1.225-0.076-1.833s0.025-1.224,0.076-1.833
			l-4.928-2.738l0.023-0.14c0.28-1.645,0.714-3.27,1.29-4.831l0.049-0.133l5.635,0.094c0.526-1.102,1.143-2.168,1.837-3.173
			l-2.897-4.831l0.091-0.109c1.063-1.275,2.253-2.466,3.535-3.54l0.109-0.091l4.827,2.897c1.006-0.696,2.072-1.313,3.173-1.836
			l-0.094-5.635l0.133-0.049c1.56-0.574,3.185-1.008,4.83-1.291l0.14-0.024l2.738,4.929c1.196-0.101,2.47-0.101,3.665,0l2.738-4.929
			l0.14,0.024c1.647,0.284,3.272,0.718,4.83,1.291l0.133,0.049l-0.094,5.635c1.105,0.525,2.171,1.143,3.173,1.836l4.833-2.897
			l0.109,0.091c1.275,1.066,2.465,2.257,3.537,3.54l0.091,0.109l-2.897,4.831c0.696,1.007,1.312,2.073,1.835,3.173l5.636-0.094
			l0.049,0.133c0.576,1.563,1.01,3.188,1.289,4.831l0.023,0.14l-4.926,2.738c0.05,0.607,0.076,1.223,0.076,1.833
			s-0.025,1.226-0.076,1.833l4.926,2.738l-0.023,0.14c-0.28,1.647-0.713,3.273-1.289,4.831l-0.049,0.133l-5.636-0.094
			c-0.524,1.101-1.141,2.167-1.836,3.173l2.897,4.835l-0.091,0.109c-1.067,1.275-2.257,2.464-3.536,3.535l-0.109,0.091l-4.834-2.897
			c-1.004,0.695-2.071,1.313-3.173,1.837l0.094,5.634l-0.133,0.049c-1.559,0.575-3.184,1.009-4.831,1.291L207.081,390.428z
			 M193.24,388.787c1.45,0.526,2.958,0.929,4.487,1.199l2.727-4.908l0.129,0.012c1.231,0.113,2.621,0.113,3.853,0l0.129-0.012
			l2.727,4.908c1.528-0.27,3.036-0.673,4.487-1.199l-0.094-5.608l0.117-0.055c1.163-0.544,2.285-1.194,3.337-1.932l0.106-0.075
			l4.812,2.884c1.183-1,2.288-2.104,3.285-3.284l-2.884-4.813l0.074-0.106c0.738-1.053,1.387-2.176,1.931-3.337l0.055-0.117
			l5.61,0.094c0.526-1.45,0.929-2.958,1.197-4.487l-4.905-2.727l0.011-0.129c0.057-0.637,0.085-1.286,0.085-1.927
			s-0.028-1.29-0.085-1.927l-0.011-0.129l4.905-2.727c-0.267-1.525-0.669-3.033-1.197-4.487l-5.61,0.094l-0.055-0.117
			c-0.543-1.16-1.192-2.283-1.93-3.337l-0.074-0.106l2.884-4.808c-1.001-1.187-2.106-2.292-3.287-3.29l-4.811,2.884l-0.106-0.075
			c-1.049-0.735-2.172-1.385-3.337-1.931l-0.117-0.055l0.094-5.609c-1.45-0.524-2.958-0.927-4.487-1.199l-2.727,4.907l-0.13-0.012
			c-1.251-0.114-2.6-0.114-3.853,0l-0.13,0.012l-2.727-4.907c-1.527,0.271-3.035,0.674-4.487,1.199l0.094,5.609l-0.117,0.055
			c-1.162,0.543-2.284,1.193-3.337,1.931l-0.106,0.075l-4.805-2.884c-1.187,1.003-2.29,2.109-3.285,3.289l2.884,4.808l-0.074,0.106
			c-0.736,1.052-1.386,2.175-1.932,3.337l-0.055,0.117l-5.608-0.094c-0.527,1.453-0.93,2.96-1.198,4.487l4.907,2.727l-0.011,0.129
			c-0.057,0.639-0.085,1.288-0.085,1.927s0.028,1.288,0.085,1.927l0.011,0.129l-4.907,2.727c0.269,1.53,0.672,3.038,1.198,4.487
			l5.609-0.094l0.055,0.117c0.544,1.161,1.193,2.284,1.931,3.337l0.074,0.106l-2.884,4.813c0.998,1.18,2.102,2.284,3.285,3.284
			l4.813-2.884l0.106,0.075c1.041,0.732,2.162,1.382,3.329,1.932l0.117,0.055L193.24,388.787z M202.51,379.231
			c-8.857,0-16.063-7.207-16.063-16.064s7.206-16.064,16.063-16.064c8.858,0,16.065,7.207,16.065,16.064
			S211.368,379.231,202.51,379.231z M202.51,347.502c-8.637,0-15.663,7.027-15.663,15.664s7.026,15.664,15.663,15.664
			c8.638,0,15.665-7.027,15.665-15.664S211.147,347.502,202.51,347.502z"/>
	</g>
</g>
<g>
	<g>
		<path fill="#1D1D1B" d="M327.918,477.842c0-0.295,0-0.58-0.037-0.861l2.182-1.223c-0.128-0.717-0.318-1.422-0.571-2.104
			l-2.499,0.041c-0.243-0.523-0.532-1.025-0.864-1.496l1.276-2.141c-0.473-0.566-0.994-1.088-1.563-1.559l-2.132,1.285
			c-0.472-0.33-0.972-0.619-1.492-0.865l0.041-2.494c-0.692-0.256-1.405-0.447-2.132-0.572l-1.224,2.186
			c-0.286-0.023-0.571-0.035-0.864-0.035c-0.294,0-0.579,0-0.865,0.035l-1.186-2.189c-0.726,0.125-1.438,0.316-2.129,0.572
			l0.041,2.494c-0.527,0.246-1.031,0.537-1.508,0.869l-2.141-1.281c-0.567,0.469-1.089,0.99-1.559,1.559l1.281,2.141
			c-0.332,0.471-0.621,0.973-0.865,1.496l-2.498-0.045c-0.256,0.689-0.447,1.402-0.571,2.127l2.185,1.225
			c-0.023,0.281-0.04,0.57-0.04,0.859s0,0.58,0.04,0.865l-2.185,1.223c0.126,0.721,0.316,1.426,0.571,2.111l2.494-0.041
			c0.244,0.523,0.533,1.025,0.865,1.498l-1.281,2.139c0.472,0.566,0.993,1.088,1.559,1.559l2.14-1.285
			c0.472,0.332,0.974,0.621,1.497,0.865l-0.041,2.498c0.695,0.256,1.414,0.445,2.145,0.568l1.223-2.182
			c0.285,0.023,0.575,0.037,0.865,0.037c0.289,0,0.578,0,0.863-0.037l1.224,2.182c0.727-0.123,1.44-0.313,2.132-0.568l-0.041-2.498
			c0.522-0.244,1.021-0.533,1.492-0.865l2.141,1.285c0.551-0.475,1.058-0.996,1.518-1.559l-1.285-2.139
			c0.336-0.477,0.629-0.979,0.877-1.506l2.5,0.041c0.251-0.691,0.441-1.402,0.566-2.129l-2.182-1.223
			C327.905,478.42,327.918,478.135,327.918,477.842z M318.051,484.902c-3.891,0-7.045-3.154-7.045-7.045s3.154-7.045,7.045-7.045
			s7.045,3.154,7.045,7.045S321.941,484.902,318.051,484.902z"/>
	</g>
	<g>
		<path d="M320.058,490.086l-1.228-2.188c-0.502,0.046-0.979,0.032-1.507-0.005l-1.229,2.193l-0.139-0.023
			c-0.746-0.126-1.48-0.32-2.181-0.578l-0.133-0.049l0.041-2.511c-0.455-0.22-0.893-0.473-1.303-0.753l-2.15,1.291l-0.109-0.091
			c-0.573-0.477-1.106-1.01-1.584-1.584l-0.091-0.109l1.287-2.149c-0.28-0.412-0.533-0.85-0.753-1.304l-2.506,0.041l-0.049-0.133
			c-0.257-0.692-0.453-1.414-0.581-2.146l-0.024-0.14l2.191-1.227c-0.025-0.254-0.025-0.509-0.025-0.756
			c0-0.227,0.01-0.472,0.031-0.747l-2.197-1.231l0.024-0.14c0.126-0.735,0.321-1.463,0.581-2.162l0.049-0.133l2.511,0.045
			c0.22-0.456,0.472-0.893,0.752-1.302l-1.287-2.151l0.09-0.108c0.477-0.577,1.01-1.11,1.586-1.586l0.108-0.09l2.151,1.288
			c0.42-0.284,0.86-0.539,1.313-0.757l-0.041-2.508l0.133-0.049c0.699-0.259,1.427-0.455,2.164-0.582l0.142-0.024l1.19,2.198
			c0.497-0.045,1.002-0.031,1.505,0.004l1.23-2.197l0.14,0.023c0.736,0.127,1.465,0.322,2.167,0.582l0.133,0.049l-0.041,2.508
			c0.452,0.221,0.887,0.473,1.298,0.752l2.143-1.291l0.109,0.09c0.571,0.474,1.106,1.007,1.588,1.585l0.091,0.108l-1.282,2.152
			c0.28,0.41,0.533,0.847,0.752,1.302l2.512-0.041l0.049,0.133c0.255,0.686,0.45,1.405,0.581,2.138l0.024,0.14l-2.189,1.228
			c0.023,0.248,0.023,0.494,0.023,0.752c0,0.252-0.009,0.499-0.027,0.751l2.192,1.229l-0.023,0.14
			c-0.126,0.729-0.319,1.456-0.575,2.163l-0.049,0.134l-2.515-0.041c-0.22,0.452-0.477,0.893-0.764,1.312l1.291,2.148l-0.089,0.109
			c-0.469,0.572-0.987,1.105-1.542,1.583l-0.109,0.095l-2.154-1.293c-0.411,0.281-0.847,0.534-1.298,0.752l0.041,2.512l-0.133,0.049
			c-0.697,0.258-1.427,0.452-2.168,0.578L320.058,490.086z M314.046,489.157c0.594,0.21,1.21,0.373,1.837,0.486l1.217-2.17
			l0.128,0.011c0.611,0.05,1.161,0.067,1.687,0.001l0.134-0.018l1.221,2.176c0.622-0.113,1.234-0.276,1.824-0.486l-0.041-2.484
			l0.117-0.056c0.512-0.238,1.004-0.523,1.462-0.847l0.106-0.075l2.128,1.277c0.461-0.408,0.896-0.854,1.295-1.331l-1.279-2.129
			l0.075-0.106c0.329-0.468,0.618-0.964,0.859-1.476l0.055-0.117l2.485,0.041c0.209-0.598,0.372-1.209,0.485-1.822l-2.17-1.216
			l0.011-0.128c0.024-0.286,0.036-0.563,0.036-0.847c0-0.292,0-0.567-0.035-0.835l-0.018-0.135l2.175-1.219
			c-0.117-0.614-0.28-1.217-0.488-1.797l-2.486,0.041l-0.055-0.118c-0.239-0.516-0.524-1.008-0.846-1.465l-0.075-0.106l1.27-2.129
			c-0.411-0.481-0.859-0.93-1.337-1.334l-2.12,1.278l-0.106-0.074c-0.458-0.32-0.95-0.605-1.464-0.849l-0.116-0.055l0.041-2.48
			c-0.594-0.212-1.206-0.376-1.824-0.49l-1.218,2.174l-0.128-0.011c-0.571-0.047-1.144-0.067-1.688-0.001l-0.136,0.017l-1.182-2.182
			c-0.618,0.114-1.229,0.278-1.819,0.489l0.041,2.48l-0.117,0.056c-0.514,0.239-1.011,0.525-1.479,0.852l-0.106,0.074l-2.129-1.275
			c-0.479,0.406-0.927,0.854-1.333,1.334l1.274,2.13l-0.075,0.106c-0.32,0.455-0.605,0.948-0.847,1.466l-0.056,0.117l-2.485-0.045
			c-0.211,0.592-0.375,1.202-0.488,1.82l2.173,1.218l-0.011,0.128c-0.026,0.317-0.039,0.594-0.039,0.843
			c0,0.278,0,0.566,0.038,0.838l0.019,0.135l-2.179,1.22c0.115,0.614,0.279,1.22,0.488,1.805l2.481-0.041l0.056,0.117
			c0.24,0.516,0.525,1.01,0.848,1.468l0.074,0.106l-1.274,2.128c0.408,0.479,0.855,0.926,1.333,1.333l2.129-1.278l0.106,0.075
			c0.457,0.321,0.95,0.606,1.467,0.847l0.117,0.056L314.046,489.157z M318.051,485.103c-3.995,0-7.245-3.25-7.245-7.245
			s3.25-7.245,7.245-7.245s7.245,3.25,7.245,7.245S322.046,485.103,318.051,485.103z M318.051,471.013
			c-3.774,0-6.845,3.07-6.845,6.845s3.07,6.845,6.845,6.845s6.845-3.07,6.845-6.845S321.825,471.013,318.051,471.013z"/>
	</g>
</g>
<g>
	<g>
		<path fill="#1D1D1B" d="M188.515,402.422c0-0.289,0-0.578-0.041-0.863l2.186-1.223c-0.126-0.727-0.315-1.441-0.567-2.133
			l-2.499,0.045c-0.243-0.523-0.532-1.025-0.864-1.496l1.284-2.14c-0.472-0.566-0.995-1.09-1.562-1.563l-2.141,1.285
			c-0.472-0.332-0.973-0.621-1.496-0.865l0.041-2.498c-0.691-0.252-1.403-0.443-2.129-0.566l-1.223,2.18
			c-0.285-0.023-0.574-0.035-0.864-0.035s-0.579,0-0.864,0.035l-1.223-2.18c-0.726,0.125-1.44,0.314-2.132,0.566l0.045,2.498
			c-0.523,0.244-1.024,0.533-1.496,0.865l-2.141-1.285c-0.566,0.473-1.09,0.996-1.562,1.563l1.284,2.14
			c-0.332,0.471-0.621,0.973-0.864,1.496l-2.499-0.045c-0.249,0.707-0.434,1.436-0.551,2.178l2.182,1.223
			c-0.025,0.285-0.037,0.574-0.037,0.863c0,0.291,0,0.58,0.037,0.865l-2.182,1.223c0.125,0.725,0.314,1.438,0.566,2.129l2.5-0.041
			c0.242,0.523,0.531,1.023,0.863,1.496l-1.283,2.141c0.473,0.566,0.994,1.09,1.561,1.563l2.153-1.326
			c0.472,0.332,0.973,0.621,1.496,0.865l-0.045,2.498c0.692,0.252,1.406,0.441,2.131,0.566l1.224-2.184
			c0.286,0.023,0.575,0.039,0.864,0.039s0.579,0,0.865-0.039l1.223,2.184c0.713-0.127,1.412-0.316,2.092-0.566l-0.041-2.498
			c0.523-0.244,1.023-0.533,1.496-0.865l2.148,1.281c0.566-0.473,1.09-0.996,1.562-1.563l-1.284-2.141
			c0.332-0.473,0.621-0.973,0.864-1.496l2.499,0.041c0.253-0.691,0.442-1.404,0.567-2.129l-2.186-1.223
			C188.498,403.002,188.515,402.713,188.515,402.422z M178.644,409.484c-3.89,0-7.044-3.154-7.044-7.045s3.154-7.044,7.044-7.044
			c3.892,0,7.046,3.154,7.046,7.044S182.535,409.484,178.644,409.484z"/>
	</g>
	<g>
		<path d="M180.651,414.667l-1.227-2.191c-0.493,0.049-0.94,0.038-1.508-0.005l-1.23,2.195l-0.14-0.023
			c-0.736-0.127-1.465-0.32-2.166-0.576l-0.134-0.049l0.045-2.512c-0.453-0.218-0.89-0.471-1.3-0.751l-2.165,1.333l-0.11-0.093
			c-0.57-0.476-1.104-1.01-1.586-1.588l-0.091-0.109l1.29-2.151c-0.284-0.415-0.536-0.853-0.751-1.302l-2.513,0.041l-0.049-0.134
			c-0.255-0.699-0.449-1.428-0.576-2.163l-0.024-0.14l2.189-1.227c-0.024-0.254-0.024-0.509-0.024-0.756
			c0-0.256,0.009-0.509,0.027-0.752l-2.191-1.228l0.021-0.138c0.119-0.75,0.307-1.495,0.56-2.213l0.048-0.136l2.514,0.045
			c0.218-0.455,0.471-0.892,0.752-1.302l-1.291-2.151l0.091-0.109c0.478-0.574,1.012-1.108,1.587-1.588l0.109-0.091l2.152,1.292
			c0.411-0.282,0.848-0.534,1.302-0.753l-0.045-2.512l0.134-0.049c0.701-0.255,1.43-0.449,2.167-0.576l0.139-0.024l1.227,2.188
			c0.511-0.045,1.014-0.031,1.507,0.004l1.229-2.191l0.139,0.023c0.725,0.123,1.454,0.317,2.164,0.576l0.134,0.049l-0.041,2.512
			c0.454,0.219,0.891,0.471,1.302,0.753l2.152-1.292l0.109,0.091c0.576,0.48,1.11,1.014,1.587,1.588l0.091,0.109l-1.291,2.151
			c0.281,0.41,0.534,0.847,0.752,1.302l2.513-0.045l0.049,0.134c0.254,0.697,0.448,1.427,0.577,2.167l0.024,0.14l-2.192,1.227
			c0.026,0.253,0.026,0.507,0.026,0.754c0,0.23-0.01,0.478-0.031,0.753l2.197,1.229l-0.024,0.14
			c-0.127,0.737-0.321,1.465-0.577,2.163l-0.049,0.134l-2.513-0.041c-0.216,0.45-0.469,0.888-0.752,1.302l1.291,2.151l-0.091,0.109
			c-0.478,0.573-1.012,1.107-1.587,1.588l-0.108,0.091l-2.16-1.288c-0.414,0.283-0.851,0.535-1.302,0.753l0.041,2.512l-0.133,0.049
			c-0.689,0.254-1.404,0.447-2.125,0.576L180.651,414.667z M174.651,413.739c0.593,0.207,1.205,0.37,1.824,0.484l1.217-2.172
			l0.128,0.011c0.675,0.054,1.174,0.07,1.687,0.001l0.135-0.019l1.219,2.178c0.604-0.115,1.204-0.277,1.785-0.483l-0.041-2.484
			l0.118-0.056c0.511-0.238,1.004-0.523,1.466-0.848l0.106-0.074l2.137,1.274c0.48-0.41,0.928-0.858,1.336-1.337l-1.277-2.13
			l0.075-0.106c0.325-0.462,0.609-0.955,0.847-1.465l0.055-0.118l2.486,0.041c0.208-0.591,0.371-1.202,0.485-1.821l-2.174-1.217
			l0.011-0.128c0.027-0.317,0.04-0.595,0.04-0.849c0-0.29,0-0.563-0.039-0.835l-0.02-0.136l2.181-1.22
			c-0.115-0.623-0.278-1.235-0.485-1.826l-2.485,0.045l-0.055-0.118c-0.24-0.516-0.524-1.008-0.847-1.465l-0.075-0.106l1.278-2.129
			c-0.408-0.478-0.856-0.927-1.336-1.337l-2.13,1.278l-0.106-0.075c-0.458-0.323-0.951-0.608-1.465-0.848l-0.118-0.055l0.041-2.484
			c-0.6-0.211-1.212-0.374-1.822-0.485l-1.216,2.168l-0.128-0.011c-0.563-0.046-1.148-0.066-1.688,0l-0.133,0.016l-1.219-2.173
			c-0.619,0.114-1.232,0.277-1.825,0.485l0.044,2.484l-0.118,0.055c-0.514,0.24-1.007,0.525-1.465,0.848l-0.106,0.075l-2.13-1.278
			c-0.479,0.41-0.928,0.859-1.336,1.337l1.278,2.129l-0.075,0.106c-0.322,0.457-0.607,0.949-0.847,1.465l-0.055,0.118l-2.484-0.045
			c-0.207,0.609-0.365,1.237-0.472,1.869l2.172,1.218l-0.011,0.129c-0.024,0.271-0.036,0.556-0.036,0.846
			c0,0.292,0,0.567,0.035,0.84l0.018,0.134l-2.176,1.219c0.114,0.619,0.277,1.23,0.485,1.822l2.487-0.041l0.055,0.118
			c0.235,0.509,0.52,1.002,0.845,1.465l0.075,0.106l-1.276,2.13c0.411,0.48,0.859,0.93,1.334,1.336l2.142-1.319l0.108,0.076
			c0.458,0.322,0.951,0.607,1.465,0.847l0.118,0.056L174.651,413.739z M178.644,409.685c-3.995,0-7.245-3.25-7.245-7.245
			c0-3.994,3.25-7.245,7.245-7.245c3.996,0,7.246,3.25,7.246,7.245C185.89,406.435,182.639,409.685,178.644,409.685z
			 M178.644,395.595c-3.774,0-6.844,3.07-6.844,6.844s3.07,6.845,6.844,6.845c3.775,0,6.846-3.07,6.846-6.845
			S182.418,395.595,178.644,395.595z"/>
	</g>
</g>
<g>
	<g>
		<line fill="#1D1D1B" x1="25.811" y1="482.833" x2="48.166" y2="482.833"/>
	</g>
	<g>
		<rect x="25.811" y="482.633" width="22.354" height="0.4"/>
	</g>
</g>
<g>
	<g>
		<line fill="#1D1D1B" x1="29.75" y1="367.755" x2="51.322" y2="367.755"/>
	</g>
	<g>
		<rect x="29.75" y="367.555" width="21.572" height="0.4"/>
	</g>
</g>
<g>
	<g>
		<line fill="#1D1D1B" x1="532.629" y1="327.846" x2="548.268" y2="327.846"/>
	</g>
	<g>
		<rect x="532.629" y="327.646" width="15.639" height="0.4"/>
	</g>
</g>
<g>
	<g>
		<line fill="#1D1D1B" x1="146.517" y1="396.069" x2="157.644" y2="396.069"/>
	</g>
	<g>
		<rect x="146.517" y="395.869" width="11.127" height="0.4"/>
	</g>
</g>
<g>
	<g>
		<line fill="#1D1D1B" x1="138.792" y1="374.36" x2="164.689" y2="374.36"/>
	</g>
	<g>
		<rect x="138.792" y="374.16" width="25.897" height="0.4"/>
	</g>
</g>
<g>
	<g>
		<line fill="#1D1D1B" x1="368.383" y1="449.57" x2="392.707" y2="449.57"/>
	</g>
	<g>
		<rect x="368.383" y="449.37" width="24.324" height="0.4"/>
	</g>
</g>
<g>
	<g>
		<line fill="#1D1D1B" x1="389.271" y1="473.51" x2="403.35" y2="473.51"/>
	</g>
	<g>
		<rect x="389.271" y="473.31" width="14.078" height="0.4"/>
	</g>
</g>
<g>
	<g>
		<path fill="#1D1D1B" d="M127.35,372.837c0.388-1.037,0.683-2.105,0.881-3.195l-3.284-1.813c0.036-0.428,0.055-0.86,0.055-1.294
			s-0.019-0.864-0.055-1.294l3.275-1.821c-0.203-1.085-0.504-2.151-0.898-3.184l-3.741,0.061c-0.369-0.784-0.803-1.534-1.3-2.243
			l1.926-3.203c-0.708-0.852-1.49-1.636-2.342-2.339l-3.201,1.926c-0.708-0.502-1.458-0.938-2.247-1.303l0.063-3.739
			c-1.033-0.39-2.099-0.685-3.187-0.881l-1.821,3.273c-0.421-0.036-0.852-0.053-1.294-0.053c-0.438,0-0.869,0.017-1.292,0.053
			l-1.813-3.273c-1.09,0.196-2.158,0.489-3.193,0.881l0.059,3.739c-0.784,0.367-1.535,0.801-2.243,1.303l-3.204-1.926
			c-0.847,0.708-1.631,1.49-2.339,2.339l1.926,3.203c-0.497,0.706-0.931,1.458-1.294,2.243l-3.747-0.061
			c-0.386,1.035-0.679,2.101-0.881,3.184l3.275,1.821c-0.038,0.423-0.055,0.855-0.055,1.294c0,0.44,0.017,0.873,0.055,1.294
			l-3.275,1.813c0.202,1.087,0.495,2.158,0.881,3.195l3.747-0.063c0.365,0.786,0.797,1.536,1.294,2.245l-1.926,3.203
			c0.712,0.845,1.497,1.627,2.339,2.339l3.204-1.926c0.708,0.498,1.458,0.927,2.243,1.294l-0.059,3.747
			c1.035,0.388,2.103,0.683,3.193,0.881l1.813-3.267c0.434,0.034,0.866,0.055,1.292,0.055c0.43,0,0.86-0.021,1.294-0.055
			l1.821,3.267c1.087-0.198,2.154-0.493,3.187-0.881l-0.063-3.747c0.788-0.363,1.539-0.795,2.247-1.294l3.201,1.926
			c0.847-0.712,1.629-1.494,2.342-2.339l-1.901-3.203c0.498-0.71,0.932-1.46,1.303-2.245L127.35,372.837z M110.182,377.086
			c-5.83,0-10.559-4.727-10.559-10.559c0-5.83,4.729-10.559,10.559-10.559c5.833,0,10.559,4.729,10.559,10.559
			C120.74,372.359,116.015,377.086,110.182,377.086z"/>
	</g>
	<g>
		<path d="M113.191,384.78l-1.828-3.28c-0.855,0.061-1.503,0.062-2.361,0l-1.82,3.28l-0.141-0.026
			c-1.098-0.2-2.184-0.499-3.228-0.89l-0.132-0.05l0.059-3.759c-0.723-0.346-1.412-0.743-2.048-1.182l-3.215,1.933l-0.109-0.092
			c-0.855-0.723-1.651-1.518-2.363-2.363l-0.092-0.109l1.933-3.215c-0.446-0.648-0.843-1.337-1.182-2.05l-3.759,0.063l-0.049-0.132
			c-0.384-1.033-0.684-2.119-0.89-3.228l-0.026-0.142l3.288-1.82c-0.03-0.375-0.045-0.771-0.045-1.182
			c0-0.409,0.015-0.806,0.045-1.182l-3.288-1.828l0.026-0.142c0.206-1.103,0.505-2.185,0.89-3.217l0.049-0.132l3.759,0.061
			c0.338-0.712,0.735-1.4,1.182-2.048l-1.933-3.214l0.091-0.109c0.709-0.851,1.505-1.646,2.365-2.365l0.109-0.091l3.214,1.933
			c0.643-0.447,1.331-0.847,2.049-1.19l-0.059-3.75l0.131-0.05c1.034-0.392,2.121-0.692,3.229-0.891l0.141-0.025l1.82,3.286
			c0.765-0.058,1.602-0.058,2.361,0l1.828-3.286l0.141,0.025c1.093,0.197,2.177,0.497,3.222,0.891l0.131,0.05l-0.063,3.75
			c0.712,0.337,1.401,0.737,2.053,1.19l3.211-1.932l0.109,0.09c0.849,0.702,1.646,1.498,2.368,2.366l0.091,0.109l-1.933,3.214
			c0.445,0.646,0.844,1.334,1.188,2.048l3.752-0.061l0.05,0.131c0.398,1.044,0.704,2.127,0.908,3.219l0.026,0.142l-3.289,1.829
			c0.03,0.398,0.046,0.794,0.046,1.182c0,0.389-0.016,0.785-0.046,1.181l3.297,1.82l-0.026,0.141
			c-0.199,1.097-0.499,2.183-0.89,3.229l-0.05,0.132l-3.751-0.063c-0.346,0.715-0.746,1.404-1.19,2.051l1.908,3.215l-0.092,0.109
			c-0.719,0.854-1.516,1.649-2.366,2.364l-0.109,0.092l-3.212-1.933c-0.648,0.448-1.337,0.845-2.053,1.183l0.063,3.758l-0.132,0.049
			c-1.042,0.391-2.125,0.691-3.221,0.891L113.191,384.78z M104.086,383.539c0.937,0.342,1.906,0.61,2.886,0.796l1.805-3.253
			l0.128,0.01c0.938,0.072,1.619,0.072,2.555,0l0.128-0.01l1.813,3.253c0.978-0.186,1.945-0.454,2.88-0.796l-0.063-3.736
			l0.119-0.055c0.775-0.357,1.521-0.786,2.215-1.276l0.106-0.075l3.19,1.92c0.756-0.646,1.468-1.356,2.117-2.115l-1.895-3.191
			l0.074-0.106c0.485-0.693,0.918-1.439,1.286-2.215l0.055-0.117l3.726,0.063c0.343-0.938,0.61-1.908,0.796-2.887l-3.271-1.806
			l0.011-0.129c0.036-0.428,0.054-0.858,0.054-1.277c0-0.417-0.018-0.847-0.054-1.277l-0.011-0.128l3.262-1.814
			c-0.19-0.975-0.463-1.941-0.812-2.877l-3.729,0.061l-0.055-0.117c-0.364-0.774-0.796-1.519-1.283-2.213l-0.075-0.106l1.919-3.192
			c-0.651-0.77-1.361-1.48-2.115-2.114l-3.191,1.92l-0.107-0.076c-0.699-0.496-1.444-0.928-2.215-1.284l-0.118-0.055l0.063-3.728
			c-0.937-0.345-1.903-0.612-2.879-0.796l-1.814,3.26l-0.129-0.011c-0.813-0.07-1.729-0.07-2.552,0L108.777,352l-1.806-3.26
			c-0.988,0.186-1.958,0.453-2.885,0.796l0.059,3.728l-0.117,0.055c-0.779,0.364-1.523,0.796-2.212,1.285l-0.107,0.076l-3.193-1.92
			c-0.763,0.648-1.474,1.358-2.114,2.114l1.92,3.192l-0.075,0.106c-0.489,0.695-0.918,1.439-1.276,2.211l-0.055,0.118l-3.735-0.061
			c-0.337,0.926-0.604,1.893-0.796,2.877l3.262,1.814l-0.012,0.129c-0.036,0.403-0.054,0.832-0.054,1.276
			c0,0.446,0.018,0.875,0.054,1.276l0.012,0.129l-3.262,1.806c0.191,0.99,0.459,1.96,0.796,2.888l3.735-0.063l0.055,0.118
			c0.359,0.773,0.788,1.518,1.276,2.214l0.075,0.106l-1.919,3.191c0.644,0.752,1.354,1.462,2.114,2.114l3.192-1.919l0.107,0.075
			c0.682,0.479,1.426,0.909,2.212,1.277l0.117,0.055L104.086,383.539z M110.182,377.287c-5.933,0-10.759-4.827-10.759-10.759
			c0-5.933,4.827-10.759,10.759-10.759c5.932,0,10.759,4.827,10.759,10.759C120.94,372.46,116.114,377.287,110.182,377.287z
			 M110.182,356.169c-5.712,0-10.359,4.647-10.359,10.359s4.647,10.358,10.359,10.358s10.358-4.646,10.358-10.358
			S115.894,356.169,110.182,356.169z"/>
	</g>
</g>
<g>
	<g>
		<line fill="#1D1D1B" x1="74.219" y1="338.365" x2="79.784" y2="338.365"/>
	</g>
	<g>
		<rect x="74.219" y="338.165" width="5.565" height="0.4"/>
	</g>
</g>
<g>
	<g>
		<line fill="#1D1D1B" x1="152.081" y1="360.673" x2="157.647" y2="360.673"/>
	</g>
	<g>
		<rect x="152.081" y="360.473" width="5.566" height="0.4"/>
	</g>
</g>
<g>
	<g>
		<line fill="#1D1D1B" x1="65.284" y1="371.893" x2="72.219" y2="371.893"/>
	</g>
	<g>
		<rect x="65.284" y="371.693" width="6.935" height="0.4"/>
	</g>
</g>
<g>
	<g>
		<line fill="#1D1D1B" x1="27.819" y1="332.608" x2="52.112" y2="332.608"/>
	</g>
	<g>
		<rect x="27.819" y="332.408" width="24.293" height="0.4"/>
	</g>
</g>
<g>
	<g>
		<line fill="#1D1D1B" x1="96.459" y1="393.488" x2="101.356" y2="393.488"/>
	</g>
	<g>
		<rect x="96.459" y="393.288" width="4.896" height="0.4"/>
	</g>
</g>
<g>
	<g>
		<line fill="#1D1D1B" x1="109.667" y1="388.299" x2="119.195" y2="388.299"/>
	</g>
	<g>
		<rect x="109.667" y="388.099" width="9.528" height="0.4"/>
	</g>
</g>
<g>
	<g>
		<line fill="#1D1D1B" x1="110.099" y1="400.925" x2="138.978" y2="400.925"/>
	</g>
	<g>
		<rect x="110.099" y="400.725" width="28.878" height="0.4"/>
	</g>
</g>
<g>
	<g>
		<line fill="#1D1D1B" x1="102.123" y1="421.232" x2="117.211" y2="421.232"/>
	</g>
	<g>
		<rect x="102.123" y="421.032" width="15.088" height="0.4"/>
	</g>
</g>
<g>
	<g>
		<line fill="#1D1D1B" x1="126.052" y1="417.638" x2="139.493" y2="417.638"/>
	</g>
	<g>
		<rect x="126.052" y="417.438" width="13.441" height="0.4"/>
	</g>
</g>
<g>
	<g>
		<line fill="#1D1D1B" x1="110.196" y1="435.056" x2="119.058" y2="435.056"/>
	</g>
	<g>
		<rect x="110.196" y="434.855" width="8.861" height="0.4"/>
	</g>
</g>
<g>
	<g>
		<line fill="#1D1D1B" x1="74.427" y1="450.08" x2="83.292" y2="450.08"/>
	</g>
	<g>
		<rect x="74.427" y="449.88" width="8.866" height="0.4"/>
	</g>
</g>
<g>
	<g>
		<line fill="#1D1D1B" x1="57.705" y1="468.617" x2="72.862" y2="468.617"/>
	</g>
	<g>
		<rect x="57.705" y="468.417" width="15.158" height="0.4"/>
	</g>
</g>
<g>
	<g>
		<line fill="#1D1D1B" x1="83.172" y1="480.987" x2="88.47" y2="480.987"/>
	</g>
	<g>
		<rect x="83.172" y="480.787" width="5.298" height="0.4"/>
	</g>
</g>
<g>
	<g>
		<line fill="#1D1D1B" x1="88.905" y1="457.66" x2="106.997" y2="457.66"/>
	</g>
	<g>
		<rect x="88.905" y="457.46" width="18.092" height="0.4"/>
	</g>
</g>
<g>
	<g>
		<line fill="#1D1D1B" x1="424.647" y1="450.59" x2="410.614" y2="450.59"/>
	</g>
	<g>
		<rect x="410.614" y="450.39" width="14.033" height="0.4"/>
	</g>
</g>
<g>
	<g>
		<line fill="#1D1D1B" x1="388.211" y1="439.072" x2="383.844" y2="439.072"/>
	</g>
	<g>
		<rect x="383.844" y="438.872" width="4.367" height="0.4"/>
	</g>
</g>
<g>
	<g>
		<line fill="#1D1D1B" x1="431.375" y1="441.416" x2="418.523" y2="441.416"/>
	</g>
	<g>
		<rect x="418.523" y="441.216" width="12.852" height="0.4"/>
	</g>
</g>
<g>
	<g>
		<line fill="#1D1D1B" x1="406.054" y1="436" x2="403.812" y2="436"/>
	</g>
	<g>
		<rect x="403.812" y="435.8" width="2.242" height="0.4"/>
	</g>
</g>
<g>
	<g>
		<line fill="#1D1D1B" x1="327.828" y1="432.149" x2="308.274" y2="432.149"/>
	</g>
	<g>
		<rect x="308.274" y="431.949" width="19.554" height="0.4"/>
	</g>
</g>
<g>
	<g>
		<line fill="#1D1D1B" x1="267.62" y1="479.821" x2="257.844" y2="479.821"/>
	</g>
	<g>
		<rect x="257.844" y="479.621" width="9.776" height="0.4"/>
	</g>
</g>
<g>
	<g>
		<line fill="#1D1D1B" x1="252.796" y1="479.821" x2="247.916" y2="479.821"/>
	</g>
	<g>
		<rect x="247.916" y="479.621" width="4.88" height="0.4"/>
	</g>
</g>
<g>
	<g>
		<line fill="#1D1D1B" x1="313.163" y1="463.725" x2="297.527" y2="463.725"/>
	</g>
	<g>
		<rect x="297.527" y="463.524" width="15.636" height="0.4"/>
	</g>
</g>
<g>
	<g>
		<line fill="#1D1D1B" x1="464.205" y1="355.055" x2="438.687" y2="355.055"/>
	</g>
	<g>
		<rect x="438.687" y="354.855" width="25.519" height="0.4"/>
	</g>
</g>
<g>
	<g>
		<line fill="#1D1D1B" x1="327.832" y1="417.199" x2="313.163" y2="417.199"/>
	</g>
	<g>
		<rect x="313.163" y="416.999" width="14.669" height="0.4"/>
	</g>
</g>
<g>
	<g>
		<line fill="#1D1D1B" x1="322.939" y1="396.069" x2="310.012" y2="396.069"/>
	</g>
	<g>
		<rect x="310.012" y="395.869" width="12.928" height="0.4"/>
	</g>
</g>
<g>
	<g>
		<line fill="#1D1D1B" x1="322.939" y1="378.04" x2="303.235" y2="378.04"/>
	</g>
	<g>
		<rect x="303.235" y="377.839" width="19.704" height="0.4"/>
	</g>
</g>
<g>
	<g>
		<line fill="#1D1D1B" x1="293.263" y1="378.04" x2="282.886" y2="378.04"/>
	</g>
	<g>
		<rect x="282.886" y="377.839" width="10.377" height="0.4"/>
	</g>
</g>
<g>
	<g>
		<line fill="#1D1D1B" x1="149.166" y1="412.131" x2="154.315" y2="412.131"/>
	</g>
	<g>
		<rect x="149.166" y="411.931" width="5.149" height="0.4"/>
	</g>
</g>
<g>
	<g>
		<line fill="#1D1D1B" x1="583.782" y1="486.55" x2="541.698" y2="486.55"/>
	</g>
	<g>
		<rect x="541.698" y="486.35" width="42.084" height="0.4"/>
	</g>
</g>
<g>
	<g>
		<line fill="#1D1D1B" x1="524.19" y1="453.965" x2="508.371" y2="453.965"/>
	</g>
	<g>
		<rect x="508.371" y="453.765" width="15.819" height="0.4"/>
	</g>
</g>
<g>
	<g>
		<line fill="#1D1D1B" x1="592.345" y1="448.113" x2="583.782" y2="448.113"/>
	</g>
	<g>
		<rect x="583.782" y="447.913" width="8.563" height="0.4"/>
	</g>
</g>
<g>
	<g>
		<line fill="#1D1D1B" x1="569.704" y1="472.123" x2="583.782" y2="472.123"/>
	</g>
	<g>
		<rect x="569.704" y="471.923" width="14.078" height="0.4"/>
	</g>
</g>
<g>
	<g>
		<line fill="#1D1D1B" x1="60.101" y1="488.893" x2="75.188" y2="488.893"/>
	</g>
	<g>
		<rect x="60.101" y="488.692" width="15.088" height="0.4"/>
	</g>
</g>
<g>
	<g>
		<line fill="#1D1D1B" x1="143.203" y1="439.852" x2="156.645" y2="439.852"/>
	</g>
	<g>
		<rect x="143.203" y="439.651" width="13.441" height="0.4"/>
	</g>
</g>
<g>
	<g>
		<line fill="#1D1D1B" x1="150.789" y1="432.149" x2="155.938" y2="432.149"/>
	</g>
	<g>
		<rect x="150.789" y="431.949" width="5.148" height="0.4"/>
	</g>
</g>
<g>
	<g>
		<line fill="#1D1D1B" x1="215.019" y1="479.821" x2="200.985" y2="479.821"/>
	</g>
	<g>
		<rect x="200.985" y="479.621" width="14.033" height="0.4"/>
	</g>
</g>
<g>
	<g>
		<line fill="#1D1D1B" x1="197.487" y1="488.893" x2="193.12" y2="488.893"/>
	</g>
	<g>
		<rect x="193.12" y="488.692" width="4.367" height="0.4"/>
	</g>
</g>
<g>
	<g>
		<line fill="#1D1D1B" x1="234.598" y1="488.893" x2="221.746" y2="488.893"/>
	</g>
	<g>
		<rect x="221.746" y="488.692" width="12.852" height="0.4"/>
	</g>
</g>
<g>
	<g>
		<line fill="#1D1D1B" x1="600.796" y1="342.004" x2="592.233" y2="342.004"/>
	</g>
	<g>
		<rect x="592.233" y="341.804" width="8.563" height="0.4"/>
	</g>
</g>
<g>
	<g>
		<line fill="#1D1D1B" x1="571.922" y1="330.01" x2="594.276" y2="330.01"/>
	</g>
	<g>
		<rect x="571.922" y="329.81" width="22.354" height="0.4"/>
	</g>
</g>
<g>
	<g>
		<line fill="#1D1D1B" x1="239.644" y1="348.517" x2="245.209" y2="348.517"/>
	</g>
	<g>
		<rect x="239.644" y="348.317" width="5.565" height="0.4"/>
	</g>
</g>
<g>
	<g>
		<line fill="#1D1D1B" x1="235.362" y1="338.365" x2="240.929" y2="338.365"/>
	</g>
	<g>
		<rect x="235.362" y="338.165" width="5.566" height="0.4"/>
	</g>
</g>
<g>
	<g>
		<line fill="#1D1D1B" x1="477.113" y1="370.5" x2="501.438" y2="370.5"/>
	</g>
	<g>
		<rect x="477.113" y="370.3" width="24.324" height="0.4"/>
	</g>
</g>
<g>
	<g>
		<line fill="#1D1D1B" x1="11.372" y1="353.368" x2="40.25" y2="353.368"/>
	</g>
	<g>
		<rect x="11.372" y="353.167" width="28.878" height="0.4"/>
	</g>
</g>
<g>
	<g>
		<line fill="#1D1D1B" x1="10.434" y1="391.5" x2="25.521" y2="391.5"/>
	</g>
	<g>
		<rect x="10.434" y="391.3" width="15.087" height="0.4"/>
	</g>
</g>
<g>
	<g>
		<line fill="#1D1D1B" x1="8.967" y1="412.131" x2="22.408" y2="412.131"/>
	</g>
	<g>
		<rect x="8.967" y="411.931" width="13.441" height="0.4"/>
	</g>
</g>
<g>
	<g>
		<line fill="#1D1D1B" x1="13.547" y1="436.637" x2="22.408" y2="436.637"/>
	</g>
	<g>
		<rect x="13.547" y="436.437" width="8.861" height="0.4"/>
	</g>
</g>
<g>
	<g>
		<line fill="#1D1D1B" x1="36.988" y1="411.517" x2="42.137" y2="411.517"/>
	</g>
	<g>
		<rect x="36.988" y="411.316" width="5.148" height="0.4"/>
	</g>
</g>
<g>
	<g>
		<line fill="#1D1D1B" x1="17.978" y1="463.725" x2="33.065" y2="463.725"/>
	</g>
	<g>
		<rect x="17.978" y="463.524" width="15.088" height="0.4"/>
	</g>
</g>
<g>
	<g>
		<line fill="#1D1D1B" x1="54.203" y1="439.072" x2="67.645" y2="439.072"/>
	</g>
	<g>
		<rect x="54.203" y="438.872" width="13.441" height="0.4"/>
	</g>
</g>
<g>
	<g>
		<line fill="#1D1D1B" x1="71.853" y1="435.781" x2="77.001" y2="435.781"/>
	</g>
	<g>
		<rect x="71.853" y="435.581" width="5.148" height="0.4"/>
	</g>
</g>
<g>
	<g>
		<path fill="#1D1D1B" d="M472.39,333.63c0-0.289,0-0.578-0.041-0.863l2.186-1.223c-0.126-0.727-0.315-1.441-0.567-2.133
			l-2.499,0.045c-0.243-0.523-0.532-1.025-0.864-1.496l1.284-2.141c-0.472-0.566-0.995-1.09-1.562-1.563l-2.141,1.285
			c-0.472-0.332-0.973-0.621-1.496-0.865l0.041-2.498c-0.691-0.252-1.403-0.443-2.129-0.566l-1.223,2.18
			c-0.285-0.023-0.574-0.035-0.864-0.035s-0.579,0-0.864,0.035l-1.223-2.18c-0.727,0.125-1.439,0.314-2.133,0.566l0.045,2.498
			c-0.523,0.244-1.023,0.533-1.496,0.865l-2.141-1.285c-0.566,0.473-1.09,0.996-1.561,1.563l1.283,2.141
			c-0.332,0.471-0.621,0.973-0.863,1.496l-2.5-0.045c-0.248,0.707-0.434,1.436-0.551,2.178l2.182,1.223
			c-0.025,0.285-0.037,0.574-0.037,0.863c0,0.291,0,0.58,0.037,0.865l-2.182,1.223c0.125,0.725,0.314,1.438,0.566,2.129l2.5-0.041
			c0.242,0.523,0.531,1.023,0.863,1.496l-1.283,2.141c0.473,0.566,0.994,1.09,1.561,1.563l2.154-1.326
			c0.471,0.332,0.973,0.621,1.496,0.865l-0.045,2.498c0.691,0.252,1.406,0.441,2.131,0.566l1.224-2.184
			c0.286,0.023,0.575,0.039,0.864,0.039s0.579,0,0.865-0.039l1.223,2.184c0.713-0.127,1.412-0.316,2.092-0.566l-0.041-2.498
			c0.523-0.244,1.023-0.533,1.496-0.865l2.148,1.281c0.566-0.473,1.09-0.996,1.562-1.563l-1.284-2.141
			c0.332-0.473,0.621-0.973,0.864-1.496l2.499,0.041c0.253-0.691,0.442-1.404,0.567-2.129l-2.186-1.223
			C472.373,334.21,472.39,333.921,472.39,333.63z M462.519,340.693c-3.89,0-7.044-3.154-7.044-7.045s3.154-7.045,7.044-7.045
			c3.892,0,7.046,3.154,7.046,7.045S466.41,340.693,462.519,340.693z"/>
	</g>
	<g>
		<path d="M464.525,345.875l-1.227-2.191c-0.49,0.049-0.939,0.038-1.508-0.004l-1.23,2.195l-0.14-0.024
			c-0.738-0.127-1.467-0.321-2.165-0.576l-0.134-0.049l0.045-2.512c-0.455-0.22-0.892-0.472-1.301-0.752l-2.165,1.333l-0.11-0.092
			c-0.57-0.476-1.104-1.01-1.586-1.588l-0.091-0.109l1.289-2.152c-0.283-0.416-0.535-0.852-0.751-1.302l-2.513,0.041l-0.049-0.134
			c-0.256-0.7-0.449-1.428-0.576-2.163l-0.023-0.14l2.188-1.227c-0.023-0.253-0.023-0.508-0.023-0.755
			c0-0.256,0.01-0.509,0.027-0.751l-2.191-1.228l0.022-0.138c0.117-0.745,0.306-1.49,0.56-2.213l0.048-0.136l2.515,0.045
			c0.218-0.454,0.47-0.891,0.751-1.302l-1.289-2.151l0.09-0.109c0.477-0.573,1.01-1.107,1.587-1.588l0.109-0.091l2.151,1.292
			c0.413-0.282,0.851-0.535,1.302-0.753l-0.045-2.512l0.134-0.049c0.703-0.255,1.433-0.449,2.167-0.576l0.14-0.024l1.228,2.188
			c0.511-0.044,1.015-0.03,1.506,0.004l1.229-2.191l0.139,0.023c0.726,0.123,1.453,0.317,2.164,0.576l0.134,0.049l-0.041,2.512
			c0.453,0.219,0.891,0.471,1.302,0.753l2.151-1.292l0.109,0.091c0.576,0.48,1.109,1.014,1.587,1.588l0.091,0.109l-1.29,2.152
			c0.281,0.41,0.533,0.847,0.752,1.302l2.512-0.045l0.049,0.134c0.255,0.697,0.448,1.426,0.577,2.167l0.024,0.14l-2.192,1.226
			c0.026,0.254,0.026,0.508,0.026,0.754c0,0.23-0.011,0.478-0.031,0.753l2.196,1.229l-0.023,0.14
			c-0.127,0.737-0.321,1.465-0.577,2.164l-0.049,0.133l-2.512-0.041c-0.217,0.451-0.47,0.887-0.752,1.302l1.29,2.152l-0.091,0.109
			c-0.478,0.574-1.011,1.108-1.587,1.588l-0.108,0.091l-2.16-1.288c-0.413,0.282-0.851,0.535-1.302,0.753l0.041,2.511l-0.133,0.049
			c-0.689,0.253-1.404,0.447-2.126,0.576L464.525,345.875z M458.526,344.947c0.592,0.208,1.204,0.37,1.824,0.485l1.217-2.172
			l0.128,0.011c0.676,0.056,1.175,0.071,1.686,0.001l0.136-0.019l1.219,2.178c0.604-0.115,1.204-0.277,1.785-0.483l-0.041-2.485
			l0.117-0.055c0.512-0.239,1.005-0.524,1.466-0.848l0.106-0.075l2.137,1.275c0.48-0.41,0.929-0.859,1.337-1.337l-1.277-2.13
			l0.074-0.106c0.325-0.462,0.61-0.956,0.847-1.466l0.055-0.118l2.486,0.041c0.208-0.591,0.371-1.202,0.485-1.822l-2.174-1.216
			l0.011-0.128c0.027-0.316,0.04-0.594,0.04-0.848c0-0.29,0-0.564-0.039-0.835l-0.02-0.136l2.182-1.22
			c-0.115-0.622-0.278-1.235-0.485-1.825l-2.486,0.044l-0.055-0.118c-0.239-0.516-0.524-1.009-0.846-1.465l-0.075-0.106l1.277-2.13
			c-0.408-0.478-0.856-0.927-1.336-1.337l-2.13,1.278l-0.106-0.075c-0.458-0.322-0.951-0.607-1.466-0.848l-0.117-0.055l0.041-2.484
			c-0.601-0.211-1.212-0.374-1.821-0.485l-1.217,2.168l-0.128-0.011c-0.563-0.047-1.147-0.067-1.688,0l-0.133,0.016l-1.219-2.173
			c-0.618,0.114-1.231,0.277-1.826,0.485l0.045,2.484l-0.117,0.055c-0.512,0.239-1.005,0.524-1.466,0.848l-0.106,0.075l-2.13-1.278
			c-0.48,0.411-0.929,0.859-1.335,1.337l1.276,2.13l-0.075,0.106c-0.322,0.458-0.607,0.951-0.845,1.465l-0.055,0.118l-2.485-0.044
			c-0.207,0.613-0.365,1.24-0.473,1.869l2.173,1.217l-0.012,0.129c-0.024,0.271-0.036,0.555-0.036,0.846
			c0,0.292,0,0.567,0.035,0.839l0.018,0.134l-2.176,1.219c0.114,0.618,0.277,1.229,0.484,1.822l2.487-0.041l0.055,0.118
			c0.235,0.509,0.52,1.001,0.846,1.465l0.074,0.106l-1.276,2.129c0.411,0.481,0.858,0.93,1.334,1.336l2.144-1.319l0.107,0.076
			c0.455,0.321,0.948,0.606,1.466,0.848l0.117,0.055L458.526,344.947z M462.519,340.893c-3.994,0-7.244-3.25-7.244-7.245
			s3.25-7.245,7.244-7.245c3.995,0,7.246,3.25,7.246,7.245S466.514,340.893,462.519,340.893z M462.519,326.803
			c-3.773,0-6.844,3.07-6.844,6.845s3.07,6.845,6.844,6.845c3.774,0,6.846-3.07,6.846-6.845S466.293,326.803,462.519,326.803z"/>
	</g>
</g>
<g>
	<g>
		<polyline fill="#1D1D1B" points="521.502,353.368 506.959,353.368 495.241,353.368 		"/>
	</g>
	<g>
		<rect x="495.241" y="353.167" width="26.261" height="0.4"/>
	</g>
</g>
<g>
	<g>
		<line fill="#1D1D1B" x1="88.248" y1="352.021" x2="76.425" y2="352.021"/>
	</g>
	<g>
		<rect x="76.425" y="351.821" width="11.823" height="0.4"/>
	</g>
</g>
<g>
	<g>
		<line fill="#1D1D1B" x1="112.034" y1="326.481" x2="141.39" y2="326.481"/>
	</g>
	<g>
		<rect x="112.034" y="326.281" width="29.355" height="0.4"/>
	</g>
</g>
<g>
	<g>
		<line fill="#1D1D1B" x1="605.029" y1="435.781" x2="562.945" y2="435.781"/>
	</g>
	<g>
		<rect x="562.945" y="435.581" width="42.084" height="0.4"/>
	</g>
</g>
<g>
	<g>
		<line fill="#1D1D1B" x1="90.246" y1="324.999" x2="74.427" y2="324.999"/>
	</g>
	<g>
		<rect x="74.427" y="324.798" width="15.819" height="0.4"/>
	</g>
</g>
<g>
	<g>
		<line fill="#1D1D1B" x1="165.464" y1="348.517" x2="156.902" y2="348.517"/>
	</g>
	<g>
		<rect x="156.902" y="348.316" width="8.563" height="0.4"/>
	</g>
</g>
<g>
	<g>
		<line fill="#1D1D1B" x1="553.76" y1="337.37" x2="567.838" y2="337.37"/>
	</g>
	<g>
		<rect x="553.76" y="337.169" width="14.078" height="0.4"/>
	</g>
</g>
<g>
	<g>
		<line fill="#1D1D1B" x1="158.4" y1="333.633" x2="163.966" y2="333.633"/>
	</g>
	<g>
		<rect x="158.4" y="333.433" width="5.565" height="0.4"/>
	</g>
</g>
<g>
	<g>
		<line fill="#1D1D1B" x1="186.639" y1="327.846" x2="201.727" y2="327.846"/>
	</g>
	<g>
		<rect x="186.639" y="327.646" width="15.088" height="0.4"/>
	</g>
</g>
<g>
	<g>
		<line fill="#1D1D1B" x1="342.066" y1="463.725" x2="355.507" y2="463.725"/>
	</g>
	<g>
		<rect x="342.066" y="463.524" width="13.44" height="0.4"/>
	</g>
</g>
<g>
	<g>
		<line fill="#1D1D1B" x1="343.638" y1="426.936" x2="348.787" y2="426.936"/>
	</g>
	<g>
		<rect x="343.638" y="426.735" width="5.149" height="0.4"/>
	</g>
</g>
<g>
	<g>
		<line fill="#1D1D1B" x1="231.484" y1="463.725" x2="217.895" y2="463.725"/>
	</g>
	<g>
		<rect x="217.895" y="463.524" width="13.589" height="0.4"/>
	</g>
</g>
<g>
	<g>
		<line fill="#1D1D1B" x1="188.807" y1="479.036" x2="163.528" y2="479.036"/>
	</g>
	<g>
		<rect x="163.528" y="478.836" width="25.278" height="0.4"/>
	</g>
</g>
<g>
	<g>
		<line fill="#1D1D1B" x1="199.676" y1="465.21" x2="176.167" y2="465.21"/>
	</g>
	<g>
		<rect x="176.167" y="465.01" width="23.509" height="0.4"/>
	</g>
</g>
<g>
	<g>
		<line fill="#1D1D1B" x1="347.55" y1="450.036" x2="333.961" y2="450.036"/>
	</g>
	<g>
		<rect x="333.961" y="449.836" width="13.589" height="0.4"/>
	</g>
</g>
<g>
	<g>
		<line fill="#1D1D1B" x1="278.074" y1="471.299" x2="252.796" y2="471.299"/>
	</g>
	<g>
		<rect x="252.796" y="471.099" width="25.278" height="0.4"/>
	</g>
</g>
<g>
	<g>
		<line fill="#1D1D1B" x1="321.766" y1="451.771" x2="298.257" y2="451.771"/>
	</g>
	<g>
		<rect x="298.257" y="451.57" width="23.509" height="0.4"/>
	</g>
</g>
<g>
	<g>
		<line fill="#1D1D1B" x1="491.484" y1="408.684" x2="478.474" y2="408.684"/>
	</g>
	<g>
		<rect x="478.474" y="408.483" width="13.011" height="0.4"/>
	</g>
</g>
<g>
	<g>
		<line fill="#1D1D1B" x1="505.134" y1="420.511" x2="493.311" y2="420.511"/>
	</g>
	<g>
		<rect x="493.311" y="420.311" width="11.823" height="0.4"/>
	</g>
</g>
<g>
	<g>
		<line fill="#1D1D1B" x1="507.132" y1="393.488" x2="491.313" y2="393.488"/>
	</g>
	<g>
		<rect x="491.313" y="393.288" width="15.819" height="0.4"/>
	</g>
</g>
<g>
	<g>
		<line fill="#1D1D1B" x1="423.07" y1="417.563" x2="407.251" y2="417.563"/>
	</g>
	<g>
		<rect x="407.251" y="417.363" width="15.819" height="0.4"/>
	</g>
</g>
<g>
	<g>
		<line fill="#1D1D1B" x1="421.284" y1="396.46" x2="407.251" y2="396.46"/>
	</g>
	<g>
		<rect x="407.251" y="396.26" width="14.033" height="0.4"/>
	</g>
</g>
<g>
	<g>
		<line fill="#1D1D1B" x1="428.012" y1="387.286" x2="415.16" y2="387.286"/>
	</g>
	<g>
		<rect x="415.16" y="387.086" width="12.852" height="0.4"/>
	</g>
</g>
<g>
	<g>
		<line fill="#1D1D1B" x1="277.472" y1="354.668" x2="264.544" y2="354.668"/>
	</g>
	<g>
		<rect x="264.544" y="354.469" width="12.928" height="0.4"/>
	</g>
</g>
<g>
	<g>
		<line fill="#1D1D1B" x1="277.472" y1="336.639" x2="257.768" y2="336.639"/>
	</g>
	<g>
		<rect x="257.768" y="336.44" width="19.704" height="0.4"/>
	</g>
</g>
</svg>
