<svg id="Layer_1" data-name="Layer 1" xmlns="http://www.w3.org/2000/svg" viewBox="0 0 1501.06 671.61"><defs><style>.cls-1,.cls-2{fill:none;stroke:#000;stroke-miterlimit:10;stroke-width:3px;}.cls-1{stroke-linecap:round;}</style></defs><title>simple-tech</title><path class="cls-1" d="M1179.25,101.41l-24.86.41a98.56,98.56,0,0,0-8.61-14.89l12.77-21.31A121.69,121.69,0,0,0,1143,50.1l-21.31,12.78a97.72,97.72,0,0,0-14.89-8.61l.24-14.65a13.74,13.74,0,0,0-10.2-13.51l-.21-.05a13.77,13.77,0,0,0-15.58,6.61L1074,45.48c-2.84-.25-5.7-.38-8.6-.38s-5.76.13-8.59.38L1044.7,23.74a120.08,120.08,0,0,0-21.2,5.66l.42,24.87A97.72,97.72,0,0,0,1009,62.88L987.72,50.1a122.42,122.42,0,0,0-15.53,15.52L985,86.93a97.72,97.72,0,0,0-8.61,14.89l-5.54-.09a24.91,24.91,0,0,0-25,20.66l0,.22,21.74,12.07c-.24,2.84-.38,5.7-.38,8.6s.14,5.76.38,8.59L945.83,164a121,121,0,0,0,5.66,21.2l24.87-.41A97.72,97.72,0,0,0,985,199.63l-12.78,21.31a122.42,122.42,0,0,0,15.53,15.52L1009,223.68a97.72,97.72,0,0,0,14.89,8.61l-.42,24.87a121,121,0,0,0,21.2,5.66l12.08-21.74c2.83.24,5.7.38,8.59.38s5.76-.14,8.6-.38l7,12.67a13.88,13.88,0,0,0,15.65,6.75l.21-.05a13.9,13.9,0,0,0,10.2-13.68l-.24-14.48a97.72,97.72,0,0,0,14.89-8.61l12.4,7.44a13.9,13.9,0,0,0,16.94-2l.16-.16a13.9,13.9,0,0,0,2-16.94l-7.43-12.4a98.56,98.56,0,0,0,8.61-14.89l24.86.41a120.08,120.08,0,0,0,5.66-21.2l-21.74-12.08q.38-4.25.38-8.59c0-2.9-.13-5.76-.38-8.6l21.74-12.07A120.08,120.08,0,0,0,1179.25,101.41Zm-113.88,112a70.13,70.13,0,1,1,70.13-70.13A70.12,70.12,0,0,1,1065.37,213.41Z" transform="translate(38.37 15.14)"/><path class="cls-1" d="M880.41,220.35l-17.15.28a67.74,67.74,0,0,0-5.93-10.26l8.81-14.7A84.58,84.58,0,0,0,855.43,185l-14.69,8.81a67.06,67.06,0,0,0-10.27-5.94l.28-17.15a83.55,83.55,0,0,0-14.61-3.9l-8.33,15q-2.92-.25-5.93-.26c-2,0-4,.09-5.92.26l-8.33-15a83.9,83.9,0,0,0-14.62,3.9l.07,3.83a23,23,0,0,1-10,19.19l-.1.07L748.34,185a83.93,83.93,0,0,0-10.71,10.7l8.81,14.7a68.65,68.65,0,0,0-5.94,10.26l-17.14-.28a82.16,82.16,0,0,0-3.9,14.62l15,8.32c-.17,2-.26,3.93-.26,5.93s.09,4,.26,5.93l-15,8.32a82.16,82.16,0,0,0,3.9,14.62l17.14-.28a68.65,68.65,0,0,0,5.94,10.26l-8.81,14.7a83.93,83.93,0,0,0,10.71,10.7L763,304.66a67.06,67.06,0,0,0,10.27,5.94L773,327.75a83.9,83.9,0,0,0,14.62,3.9l8.33-15c1.95.17,3.93.26,5.92.26s4-.09,5.93-.26l8.33,15a83.55,83.55,0,0,0,14.61-3.9l-.28-17.15a67.06,67.06,0,0,0,10.27-5.94l14.69,8.81a84.58,84.58,0,0,0,10.71-10.7l-8.81-14.7a67.74,67.74,0,0,0,5.93-10.26l17.15.28a83,83,0,0,0,3.9-14.62l-15-8.32c.17-2,.26-3.93.26-5.93s-.09-4-.26-5.93l15-8.32A83,83,0,0,0,880.41,220.35Zm-78.53,77.23a48.36,48.36,0,1,1,48.36-48.36A48.36,48.36,0,0,1,801.88,297.58Z" transform="translate(38.37 15.14)"/><path class="cls-1" d="M959.73,291.47l-8.57.14a33.9,33.9,0,0,0-3-5.13l4.4-7.35a42.25,42.25,0,0,0-5.35-5.35l-7.34,4.41a33.65,33.65,0,0,0-5.14-3l.14-8.58a41.39,41.39,0,0,0-7.31-1.95l-4.16,7.5c-1-.09-2-.13-3-.13s-2,0-3,.13l-4.16-7.5a41.63,41.63,0,0,0-7.31,1.95l.14,8.58a33.08,33.08,0,0,0-5.13,3l-7.35-4.41a42.25,42.25,0,0,0-5.35,5.35l4.41,7.35a33.08,33.08,0,0,0-3,5.13l-8.58-.14a42.52,42.52,0,0,0-2,7.31l7.5,4.16c-.09,1-.13,2-.13,3s0,2,.13,3l-7.5,4.16a42.28,42.28,0,0,0,2,7.31l8.58-.14a33.08,33.08,0,0,0,3,5.13l-4.41,7.35a42.25,42.25,0,0,0,5.35,5.35l7.35-4.4a34.77,34.77,0,0,0,5.13,3l-.08,5a4.75,4.75,0,0,0,3.52,4.67l.07,0a4.74,4.74,0,0,0,5.37-2.28l2.45-4.42c1,.09,2,.14,3,.14s2-.05,3-.14l2.45,4.42a4.76,4.76,0,0,0,5.38,2.28l.07,0a4.74,4.74,0,0,0,3.51-4.67l-.08-5a35.39,35.39,0,0,0,5.14-3l7.34,4.4a42.25,42.25,0,0,0,5.35-5.35l-4.4-7.35a33.9,33.9,0,0,0,3-5.13l8.57.14a41.39,41.39,0,0,0,1.95-7.31l-7.49-4.16c.08-1,.13-2,.13-3s-.05-2-.13-3l7.49-4.16A41.63,41.63,0,0,0,959.73,291.47Zm-39.26,38.61a24.18,24.18,0,1,1,24.18-24.17A24.17,24.17,0,0,1,920.47,330.08Z" transform="translate(38.37 15.14)"/><path class="cls-2" d="M1085.65,563.75l8.81-.14a34.9,34.9,0,0,0,3,5.27l-4.53,7.56a44.65,44.65,0,0,0,5.5,5.5l7.56-4.53a34.9,34.9,0,0,0,5.27,3.05l-.14,8.81a42.81,42.81,0,0,0,7.51,2l4.28-7.71c1,.09,2,.14,3,.14s2-.05,3-.14l4.28,7.71a42.92,42.92,0,0,0,7.52-2l-.15-8.81a35,35,0,0,0,5.28-3.05l7.55,4.53a43.3,43.3,0,0,0,5.5-5.5l-4.53-7.56a35,35,0,0,0,3.06-5.27l8.81.14a41.93,41.93,0,0,0,2-7.51l-7.7-4.28c.09-1,.13-2,.13-3.05s0-2-.13-3l7.7-4.28a42,42,0,0,0-2-7.52l-8.81.15a35.05,35.05,0,0,0-3.06-5.28l4.53-7.55a42,42,0,0,0-5.5-5.5l-7.55,4.53a35.05,35.05,0,0,0-5.28-3.06l.15-8.81a42,42,0,0,0-7.52-2l-4.28,7.7c-1-.09-2-.13-3-.13s-2,0-3,.13l-4.28-7.7a41.93,41.93,0,0,0-7.51,2l.14,8.81a35,35,0,0,0-5.27,3.06l-7.56-4.53a43.3,43.3,0,0,0-5.5,5.5l4.53,7.55a35,35,0,0,0-3,5.28l-8.81-.15a42.92,42.92,0,0,0-2,7.52l7.71,4.28c-.09,1-.14,2-.14,3s0,2,.14,3.05l-7.71,4.28A42.81,42.81,0,0,0,1085.65,563.75ZM1126,524.06a24.86,24.86,0,1,1-24.86,24.85A24.86,24.86,0,0,1,1126,524.06Z" transform="translate(38.37 15.14)"/><path class="cls-2" d="M1174.06,519.86l30.57-.51a120.43,120.43,0,0,0,10.59,18.31l-15.71,26.2a149.53,149.53,0,0,0,19.08,19.08l26.2-15.71a120.43,120.43,0,0,0,18.31,10.59l-.51,30.57a147.48,147.48,0,0,0,26.06,7l14.85-26.73q5.22.46,10.57.47t10.56-.47l14.85,26.73a147.25,147.25,0,0,0,26.06-7l-.51-30.57a120.43,120.43,0,0,0,18.31-10.59l26.2,15.71a149.53,149.53,0,0,0,19.08-19.08l-15.71-26.2a120.43,120.43,0,0,0,10.59-18.31l30.57.51a147.25,147.25,0,0,0,7-26.06L1434.3,479c.3-3.48.47-7,.47-10.56s-.17-7.09-.47-10.57L1461,443a147.48,147.48,0,0,0-7-26.06l-30.57.51a120.92,120.92,0,0,0-10.59-18.31l15.71-26.2a149.53,149.53,0,0,0-19.08-19.08l-26.2,15.71A120.43,120.43,0,0,0,1365,359l.51-30.57a149,149,0,0,0-26.06-7l-14.85,26.73c-3.48-.3-7-.47-10.56-.47s-7.09.17-10.57.47l-14.85-26.73a149.22,149.22,0,0,0-26.06,7l.51,30.57a120.43,120.43,0,0,0-18.31,10.59l-26.2-15.71a149.53,149.53,0,0,0-19.08,19.08l15.71,26.2a120.92,120.92,0,0,0-10.59,18.31l-30.57-.51a147.48,147.48,0,0,0-7,26.06l26.73,14.85c-.3,3.48-.47,7-.47,10.57s.17,7.08.47,10.56L1167.1,493.8A147.25,147.25,0,0,0,1174.06,519.86Zm140-137.69a86.22,86.22,0,1,1-86.22,86.22A86.22,86.22,0,0,1,1314.07,382.17Z" transform="translate(38.37 15.14)"/><path class="cls-2" d="M1038,453.77l11.5-.19a44.29,44.29,0,0,0,4,6.88l-5.91,9.85a55.9,55.9,0,0,0,7.18,7.17l9.84-5.9a45.69,45.69,0,0,0,6.89,4l-.19,11.49a55.13,55.13,0,0,0,9.79,2.62l5.58-10.05c1.31.11,2.64.17,4,.17s2.66-.06,4-.17l5.58,10.05a55.46,55.46,0,0,0,9.8-2.62l-.19-11.49a45.59,45.59,0,0,0,6.88-4l9.85,5.9a56.47,56.47,0,0,0,7.17-7.17l-5.9-9.85a45.11,45.11,0,0,0,4-6.88l11.49.19a56.08,56.08,0,0,0,2.61-9.8l-10-5.58c.11-1.31.17-2.63.17-4s-.06-2.66-.17-4l10-5.59a56.21,56.21,0,0,0-2.61-9.79l-11.49.19a45.11,45.11,0,0,0-4-6.88l5.9-9.85a56.55,56.55,0,0,0-7.17-7.18l-9.85,5.91a45.59,45.59,0,0,0-6.88-4l.19-11.49a55.46,55.46,0,0,0-9.8-2.62l-5.58,10.05c-1.31-.12-2.63-.18-4-.18s-2.67.06-4,.18L1081,379.17a55.13,55.13,0,0,0-9.79,2.62l.19,11.49a45.69,45.69,0,0,0-6.89,4l-9.84-5.91a56,56,0,0,0-7.18,7.18l5.91,9.85a44.29,44.29,0,0,0-4,6.88l-11.5-.19a56.21,56.21,0,0,0-2.61,9.79l10.05,5.59c-.12,1.31-.18,2.63-.18,4s.06,2.66.18,4L1035.35,444A56.08,56.08,0,0,0,1038,453.77ZM1090.6,402a32.41,32.41,0,1,1-32.41,32.41A32.41,32.41,0,0,1,1090.6,402Z" transform="translate(38.37 15.14)"/><line class="cls-1" x1="1359.82" y1="639.66" x2="1327.91" y2="639.66"/><line class="cls-1" x1="1185.97" y1="513.75" x2="1118.88" y2="513.75"/><line class="cls-1" x1="1244.69" y1="552.16" x2="1217.67" y2="552.16"/><polyline class="cls-1" points="1451.64 660.99 1415.97 660.99 1387.23 660.99"/><line class="cls-1" x1="1364.3" y1="660.99" x2="1335.3" y2="660.99"/><line class="cls-1" x1="898.12" y1="168.31" x2="804.12" y2="168.31"/><path class="cls-1" d="M1135.5,15.06h0a24,24,0,0,0,24,24h64.16" transform="translate(38.37 15.14)"/><line class="cls-1" x1="1215.36" y1="88.29" x2="1248.69" y2="88.29"/><line class="cls-1" x1="1268.69" y1="88.29" x2="1330.69" y2="88.29"/><line class="cls-1" x1="1242.03" y1="122.2" x2="1299.69" y2="122.2"/><line class="cls-1" x1="1223.28" y1="158.42" x2="1336.69" y2="158.42"/><line class="cls-1" x1="1294.79" y1="184.86" x2="1318.46" y2="184.86"/><line class="cls-1" x1="1198.69" y1="260.86" x2="1255.36" y2="260.86"/><line class="cls-1" x1="1080.69" y1="297.94" x2="1173.87" y2="297.94"/><line class="cls-1" x1="1136.03" y1="316.2" x2="1110.69" y2="316.2"/><line class="cls-1" x1="1022.99" y1="363.21" x2="994.99" y2="363.21"/><line class="cls-1" x1="901.99" y1="361.64" x2="870.33" y2="361.64"/><line class="cls-1" x1="895.99" y1="107.64" x2="871.33" y2="107.64"/><line class="cls-1" x1="1206.74" y1="630.49" x2="1103.52" y2="630.49"/><line class="cls-1" x1="1112.52" y1="606.42" x2="1073.72" y2="606.42"/><line class="cls-1" x1="1061.52" y1="582.58" x2="1036.02" y2="582.58"/><line class="cls-1" x1="1054.43" y1="513.75" x2="1004.18" y2="513.75"/><line class="cls-1" x1="1069.77" y1="483.53" x2="1048.77" y2="483.53"/><line class="cls-1" x1="1029.3" y1="483.53" x2="970.64" y2="483.53"/><line class="cls-1" x1="1036.62" y1="422.99" x2="991.32" y2="422.99"/><line class="cls-1" x1="1093.12" y1="397.31" x2="1044.9" y2="397.31"/><line class="cls-1" x1="790.99" y1="383.39" x2="862.99" y2="383.39"/><line class="cls-1" x1="883.66" y1="383.39" x2="907.83" y2="383.39"/><line class="cls-1" x1="1040.99" y1="363.21" x2="1059.66" y2="363.21"/><path class="cls-2" d="M110.9,517.37l-13.79.23a55,55,0,0,0-4.78-8.26l7.09-11.83a68.66,68.66,0,0,0-8.61-8.61L79,496a54.47,54.47,0,0,0-8.26-4.78L71,477.42a65.89,65.89,0,0,0-11.76-3.14l-6.7,12.06q-2.35-.21-4.77-.21t-4.77.21l-6.7-12.06a66.34,66.34,0,0,0-11.76,3.14l.23,13.79A55.46,55.46,0,0,0,16.46,496L4.64,488.9A68.07,68.07,0,0,0-4,497.51l7.09,11.83a54.06,54.06,0,0,0-4.77,8.26l-13.8-.23a66.74,66.74,0,0,0-3.14,11.76l12.06,6.7c-.13,1.57-.21,3.16-.21,4.77s.08,3.2.21,4.77l-12.06,6.7a67,67,0,0,0,3.14,11.76l13.8-.23a54.55,54.55,0,0,0,4.77,8.26L-4,583.68a67.5,67.5,0,0,0,8.62,8.62l11.82-7.09A54.55,54.55,0,0,0,24.72,590l-.23,13.8a67.21,67.21,0,0,0,11.76,3.14L43,594.86q2.37.21,4.77.21t4.77-.21l6.7,12.06A66.74,66.74,0,0,0,71,603.78L70.72,590A53.59,53.59,0,0,0,79,585.21l11.83,7.09a68.07,68.07,0,0,0,8.61-8.62l-7.09-11.82a55.46,55.46,0,0,0,4.78-8.26l13.79.23A66.11,66.11,0,0,0,114,552.07L102,545.37q.21-2.36.21-4.77t-.21-4.77l12.06-6.7A65.89,65.89,0,0,0,110.9,517.37ZM47.72,579.51A38.91,38.91,0,1,1,86.63,540.6,38.91,38.91,0,0,1,47.72,579.51Z" transform="translate(38.37 15.14)"/><path class="cls-2" d="M172.79,593.85,165,594a30.23,30.23,0,0,0-2.69-4.65l4-6.65a37.59,37.59,0,0,0-4.85-4.84l-6.65,4a30.13,30.13,0,0,0-4.64-2.69l.12-7.76a37.41,37.41,0,0,0-6.61-1.77l-3.77,6.79c-.89-.08-1.78-.12-2.68-.12s-1.8,0-2.69.12l-3.77-6.79a37.41,37.41,0,0,0-6.61,1.77l.13,7.76a29.76,29.76,0,0,0-4.65,2.69l-6.65-4a37.59,37.59,0,0,0-4.85,4.84l4,6.65a30.23,30.23,0,0,0-2.69,4.65l-7.76-.13a38.64,38.64,0,0,0-1.77,6.62l6.79,3.77c-.08.88-.12,1.78-.12,2.68s0,1.8.12,2.68l-6.79,3.77A38.4,38.4,0,0,0,101.7,620l7.76-.13a30.23,30.23,0,0,0,2.69,4.65l-4,6.65A38.31,38.31,0,0,0,113,636l6.65-4a30.53,30.53,0,0,0,4.65,2.68l-.13,7.77a37.39,37.39,0,0,0,6.61,1.76l3.77-6.78c.89.07,1.78.12,2.69.12s1.79-.05,2.68-.12l3.77,6.78a37.39,37.39,0,0,0,6.61-1.76l-.12-7.77a30.91,30.91,0,0,0,4.64-2.68l6.65,4a38.31,38.31,0,0,0,4.85-4.85l-4-6.65a30.23,30.23,0,0,0,2.69-4.65l7.76.13a37.51,37.51,0,0,0,1.77-6.62l-6.79-3.77c.08-.88.12-1.77.12-2.68s0-1.8-.12-2.68l6.79-3.77A37.75,37.75,0,0,0,172.79,593.85Zm-35.54,35a21.89,21.89,0,1,1,21.88-21.89A21.89,21.89,0,0,1,137.25,628.81Z" transform="translate(38.37 15.14)"/><path class="cls-1" d="M92.79,117.7,79,117.93a55,55,0,0,0-4.78-8.26l7.09-11.83a68.66,68.66,0,0,0-8.61-8.61L60.87,96.32a55,55,0,0,0-8.26-4.78l.23-13.79a65.89,65.89,0,0,0-11.76-3.14l-6.7,12.06q-2.35-.21-4.77-.21t-4.77.21l-6.7-12.06A66.11,66.11,0,0,0,6.38,77.75l.23,13.79a55.46,55.46,0,0,0-8.26,4.78l-11.82-7.09a68.07,68.07,0,0,0-8.62,8.61L-15,109.67a55,55,0,0,0-4.78,8.26l-13.79-.23a67,67,0,0,0-3.14,11.76l12.06,6.7q-.21,2.35-.21,4.77t.21,4.77l-12.06,6.7a67,67,0,0,0,3.14,11.76l13.79-.23A55,55,0,0,0-15,172.19L-22.09,184a68.07,68.07,0,0,0,8.62,8.61l11.82-7.09a55.46,55.46,0,0,0,8.26,4.78l-.23,13.79a66.11,66.11,0,0,0,11.76,3.14l6.7-12.06q2.36.21,4.77.21t4.77-.21l6.7,12.06a65.89,65.89,0,0,0,11.76-3.14l-.23-13.79a55,55,0,0,0,8.26-4.78l11.83,7.09A68.66,68.66,0,0,0,81.31,184l-7.09-11.83A55,55,0,0,0,79,163.93l13.79.23a66.11,66.11,0,0,0,3.14-11.76l-12.06-6.7q.21-2.35.21-4.77t-.21-4.77l12.06-6.7A66.11,66.11,0,0,0,92.79,117.7ZM29.61,179.84a38.91,38.91,0,1,1,38.91-38.91A38.91,38.91,0,0,1,29.61,179.84Z" transform="translate(38.37 15.14)"/><path class="cls-1" d="M87.12,25.49l-6.13.1a23.82,23.82,0,0,0-2.12-3.67L82,16.67a29.41,29.41,0,0,0-3.83-3.82L72.94,16a25.08,25.08,0,0,0-3.66-2.12l.1-6.12a29.4,29.4,0,0,0-5.23-1.4l-3,5.36c-.7-.06-1.4-.09-2.12-.09s-1.42,0-2.12.09L54,6.35a29.29,29.29,0,0,0-5.22,1.4l.1,6.12A24.67,24.67,0,0,0,45.18,16l-5.25-3.14a28.73,28.73,0,0,0-3.82,3.82l3.14,5.25a23.82,23.82,0,0,0-2.12,3.67L31,25.49a29.29,29.29,0,0,0-1.4,5.22l5.36,3c-.06.69-.1,1.4-.1,2.11s0,1.42.1,2.12l-5.36,3A29.52,29.52,0,0,0,31,46.12l6.12-.1a24.3,24.3,0,0,0,2.12,3.67l-3.14,5.25a30,30,0,0,0,3.82,3.82l5.25-3.15a23.82,23.82,0,0,0,3.67,2.12l-.1,6.13A29.27,29.27,0,0,0,54,65.25l3-5.35c.7.06,1.41.09,2.12.09s1.42,0,2.12-.09l3,5.35a29.38,29.38,0,0,0,5.23-1.39l-.1-6.13a24.2,24.2,0,0,0,3.66-2.12l5.25,3.15A30.71,30.71,0,0,0,82,54.94l-3.15-5.25A24.3,24.3,0,0,0,81,46l6.13.1a30.38,30.38,0,0,0,1.39-5.22l-5.35-3c.06-.7.09-1.4.09-2.12s0-1.42-.09-2.11l5.35-3A30.14,30.14,0,0,0,87.12,25.49ZM59.06,53.08A17.28,17.28,0,1,1,76.34,35.8,17.28,17.28,0,0,1,59.06,53.08Z" transform="translate(38.37 15.14)"/><path class="cls-1" d="M160.11,186.84l-6.13.1a23.82,23.82,0,0,0-2.12-3.67L155,178a30.13,30.13,0,0,0-3.83-3.83l-5.25,3.15a23.82,23.82,0,0,0-3.67-2.12l.1-6.13a30.14,30.14,0,0,0-5.22-1.39l-3,5.36c-.7-.06-1.41-.1-2.12-.1s-1.42,0-2.12.1l-3-5.36a30.49,30.49,0,0,0-5.23,1.39l.11,6.13a23.82,23.82,0,0,0-3.67,2.12l-5.25-3.15a30.13,30.13,0,0,0-3.83,3.83l3.15,5.25a23.82,23.82,0,0,0-2.12,3.67l-6.13-.1a30.14,30.14,0,0,0-1.39,5.22l5.35,3c-.06.7-.09,1.41-.09,2.12s0,1.42.09,2.12l-5.35,3a30.49,30.49,0,0,0,1.39,5.23l6.13-.11a23.82,23.82,0,0,0,2.12,3.67l-3.15,5.25a30.13,30.13,0,0,0,3.83,3.83l5.25-3.15a23.82,23.82,0,0,0,3.67,2.12l-.11,6.13A30.49,30.49,0,0,0,127,226.6l3-5.35c.7.06,1.41.09,2.12.09s1.42,0,2.12-.09l3,5.35a30.14,30.14,0,0,0,5.22-1.39l-.1-6.13a23.82,23.82,0,0,0,3.67-2.12l5.25,3.15a30.13,30.13,0,0,0,3.83-3.83L151.86,211a23.82,23.82,0,0,0,2.12-3.67l6.13.11a30.49,30.49,0,0,0,1.39-5.23l-5.36-3c.06-.7.1-1.41.1-2.12s0-1.42-.1-2.12l5.36-3A30.14,30.14,0,0,0,160.11,186.84Zm-28.06,27.59a17.28,17.28,0,1,1,17.28-17.28A17.28,17.28,0,0,1,132.05,214.43Z" transform="translate(38.37 15.14)"/><line class="cls-1" x1="106.89" y1="89.75" x2="161.72" y2="89.75"/><line class="cls-1" x1="140.97" y1="108.55" x2="193.88" y2="108.55"/><line class="cls-1" x1="212.86" y1="108.55" x2="251.22" y2="108.55"/><line class="cls-1" x1="147.61" y1="169.22" x2="174.9" y2="169.22"/><line class="cls-1" x1="187.7" y1="169.22" x2="251.22" y2="169.22"/><path class="cls-1" d="M88.51,207.25v14.5a28.38,28.38,0,0,0,28.38,28.38h35.82a28.38,28.38,0,0,1,28.38,28.38h0" transform="translate(38.37 15.14)"/><line class="cls-1" x1="106.89" y1="293.65" x2="147.49" y2="293.65"/><line class="cls-1" x1="17.23" y1="265.27" x2="155.26" y2="265.27"/><line class="cls-1" x1="47.23" y1="1.5" x2="106.89" y2="1.5"/><path class="cls-1" d="M88.82-13.64h0A13.78,13.78,0,0,1,102.6.14V4.75a13.78,13.78,0,0,0,13.78,13.78h39.13" transform="translate(38.37 15.14)"/><line class="cls-1" x1="147.61" y1="58.88" x2="212.86" y2="58.88"/><line class="cls-1" x1="172.36" y1="89.75" x2="206.89" y2="89.75"/><path class="cls-1" d="M399.45-163.38" transform="translate(38.37 15.14)"/><path class="cls-1" d="M186.7,118.64l-4.25.07a17,17,0,0,0-1.48-2.55l2.19-3.64a20.26,20.26,0,0,0-2.66-2.66l-3.64,2.19a16.14,16.14,0,0,0-2.55-1.48l.07-4.25a20.74,20.74,0,0,0-3.62-1l-2.07,3.72q-.72-.06-1.47-.06t-1.47.06l-2.06-3.72a20.62,20.62,0,0,0-3.63,1l.07,4.25a16.6,16.6,0,0,0-2.55,1.48l-3.64-2.19a20.89,20.89,0,0,0-2.66,2.66l2.19,3.64a16.09,16.09,0,0,0-1.47,2.55l-4.26-.07a21.67,21.67,0,0,0-1,3.62l3.72,2.07q-.06.72-.06,1.47t.06,1.47l-3.72,2.06a21.78,21.78,0,0,0,1,3.63l4.26-.07a16.54,16.54,0,0,0,1.47,2.55l-2.19,3.64a22.28,22.28,0,0,0,2.66,2.66l3.64-2.19a16.54,16.54,0,0,0,2.55,1.47l-.07,4.26a20.6,20.6,0,0,0,3.63,1l2.06-3.71q.74.06,1.47.06t1.47-.06l2.07,3.71a20.72,20.72,0,0,0,3.62-1l-.07-4.26a16.09,16.09,0,0,0,2.55-1.47l3.64,2.19a21.56,21.56,0,0,0,2.66-2.66L181,135.44a17.46,17.46,0,0,0,1.48-2.55l4.25.07a20.85,20.85,0,0,0,1-3.63L184,127.27q.06-.73.06-1.47t-.06-1.47l3.72-2.07A20.74,20.74,0,0,0,186.7,118.64Zm-19.48,19.15a12,12,0,1,1,12-12A12,12,0,0,1,167.22,137.79Z" transform="translate(38.37 15.14)"/><line class="cls-1" x1="148.07" y1="152.93" x2="161.72" y2="152.93"/><line class="cls-1" x1="137.57" y1="128.03" x2="151.22" y2="128.03"/><path class="cls-1" d="M19.21,437H75.52a10.25,10.25,0,0,1,10.25,10.25h0A10.25,10.25,0,0,0,96,457.47H125.5" transform="translate(38.37 15.14)"/><line class="cls-1" x1="132.71" y1="452.11" x2="147.58" y2="452.11"/><line class="cls-1" x1="156.43" y1="452.11" x2="163.87" y2="452.11"/><line class="cls-1" x1="158.48" y1="499.14" x2="168.98" y2="499.14"/><line class="cls-1" x1="181.55" y1="499.14" x2="201.98" y2="499.14"/><line class="cls-1" x1="175.82" y1="521.69" x2="237.74" y2="521.69"/><line class="cls-1" x1="181.33" y1="544.4" x2="213.68" y2="544.4"/><line class="cls-1" x1="200.28" y1="567.11" x2="229.1" y2="567.11"/><line class="cls-1" x1="206.78" y1="587.11" x2="225.78" y2="587.11"/><line class="cls-1" x1="105.99" y1="631.61" x2="125" y2="631.61"/><line class="cls-1" x1="90.78" y1="653.11" x2="123.28" y2="653.11"/><line class="cls-1" x1="130.42" y1="653.11" x2="141.78" y2="653.11"/><line class="cls-1" x1="144.78" y1="670.11" x2="183.57" y2="670.11"/><line class="cls-1" x1="1108.14" y1="554.66" x2="1073.72" y2="554.66"/><line class="cls-1" x1="1065.14" y1="554.66" x2="1054.43" y2="554.66"/><line class="cls-1" x1="1124.64" y1="532.16" x2="1093.12" y2="532.16"/><line class="cls-1" x1="1086.64" y1="532.16" x2="1081.14" y2="532.16"/><line class="cls-1" x1="922.68" y1="107.64" x2="970.64" y2="107.64"/><line class="cls-1" x1="946.66" y1="78.14" x2="970.64" y2="78.14"/><line class="cls-1" x1="983.02" y1="78.14" x2="994.99" y2="78.14"/><line class="cls-1" x1="970.64" y1="54.2" x2="1008.99" y2="54.2"/><line class="cls-1" x1="902.78" y1="149.14" x2="965.37" y2="149.14"/><line class="cls-1" x1="934.66" y1="168.31" x2="970.64" y2="168.31"/><line class="cls-1" x1="946.66" y1="220.14" x2="978.37" y2="220.14"/><line class="cls-1" x1="946.66" y1="264.36" x2="994.99" y2="264.36"/><line class="cls-1" x1="1019.45" y1="264.36" x2="1044.9" y2="264.36"/><line class="cls-1" x1="245.33" y1="544.4" x2="256.37" y2="544.4"/></svg>